<svg width="32" height="43" viewBox="0 0 32 43" fill="none" xmlns="http://www.w3.org/2000/svg">
<path d="M14.3557 41.8058C2.2475 24.2526 0 22.4511 0 16C0 7.16342 7.16342 0 16 0C24.8366 0 32 7.16342 32 16C32 22.4511 29.7525 24.2526 17.6443 41.8058C16.8498 42.9537 15.1502 42.9536 14.3557 41.8058ZM16 22.6667C19.6819 22.6667 22.6667 19.6819 22.6667 16C22.6667 12.3181 19.6819 9.33333 16 9.33333C12.3181 9.33333 9.33333 12.3181 9.33333 16C9.33333 19.6819 12.3181 22.6667 16 22.6667Z" fill="#99CCFF"/>
</svg>
