<svg width="821" height="684" viewBox="0 0 821 684" fill="none" xmlns="http://www.w3.org/2000/svg">
<g clip-path="url(#clip0_447_7254)">
<path d="M503.921 35.46C510.708 35.46 516.211 29.9576 516.211 23.17C516.211 16.3824 510.708 10.88 503.921 10.88C497.133 10.88 491.631 16.3824 491.631 23.17C491.631 29.9576 497.133 35.46 503.921 35.46Z" fill="#E6EAF0"/>
<path d="M461.21 54.83C468 54.83 473.5 49.33 473.5 42.54C473.5 35.75 468 30.25 461.21 30.25C454.42 30.25 448.92 35.75 448.92 42.54C448.92 49.33 454.42 54.83 461.21 54.83Z" fill="#E6EAF0"/>
<path d="M422.47 78.17C429.26 78.17 434.76 72.67 434.76 65.88C434.76 59.09 429.26 53.59 422.47 53.59C415.68 53.59 410.18 59.09 410.18 65.88C410.18 72.67 415.68 78.17 422.47 78.17Z" fill="#E6EAF0"/>
<path d="M389.2 103.5C395.99 103.5 401.49 98 401.49 91.21C401.49 84.42 395.99 78.92 389.2 78.92C382.41 78.92 376.91 84.42 376.91 91.21C376.91 98 382.41 103.5 389.2 103.5Z" fill="#E6EAF0"/>
<path d="M362.88 133.8C369.67 133.8 375.17 128.3 375.17 121.51C375.17 114.72 369.67 109.22 362.88 109.22C356.09 109.22 350.59 114.72 350.59 121.51C350.59 128.3 356.09 133.8 362.88 133.8Z" fill="#E6EAF0"/>
<path d="M341.03 160.62C347.82 160.62 353.32 155.12 353.32 148.33C353.32 141.54 347.82 136.04 341.03 136.04C334.24 136.04 328.74 141.54 328.74 148.33C328.74 155.12 334.24 160.62 341.03 160.62Z" fill="#E6EAF0"/>
<path d="M319.671 191.9C326.458 191.9 331.961 186.398 331.961 179.61C331.961 172.822 326.458 167.32 319.671 167.32C312.883 167.32 307.381 172.822 307.381 179.61C307.381 186.398 312.883 191.9 319.671 191.9Z" fill="#E6EAF0"/>
<path d="M310.729 225.67C317.519 225.67 323.019 220.17 323.019 213.38C323.019 206.59 317.519 201.09 310.729 201.09C303.939 201.09 298.439 206.59 298.439 213.38C298.439 220.17 303.939 225.67 310.729 225.67Z" fill="#E6EAF0"/>
<path d="M306.261 257.95C313.048 257.95 318.551 252.448 318.551 245.66C318.551 238.872 313.048 233.37 306.261 233.37C299.473 233.37 293.971 238.872 293.971 245.66C293.971 252.448 299.473 257.95 306.261 257.95Z" fill="#E6EAF0"/>
<path d="M304.77 289.24C311.56 289.24 317.06 283.74 317.06 276.95C317.06 270.16 311.56 264.66 304.77 264.66C297.98 264.66 292.48 270.16 292.48 276.95C292.48 283.74 297.98 289.24 304.77 289.24Z" fill="#E6EAF0"/>
<path d="M307.751 316.06C314.539 316.06 320.041 310.558 320.041 303.77C320.041 296.982 314.539 291.48 307.751 291.48C300.963 291.48 295.461 296.982 295.461 303.77C295.461 310.558 300.963 316.06 307.751 316.06Z" fill="#E6EAF0"/>
<path d="M315.2 340.4C321.99 340.4 327.49 334.9 327.49 328.11C327.49 321.32 321.99 315.82 315.2 315.82C308.41 315.82 302.91 321.32 302.91 328.11C302.91 334.9 308.41 340.4 315.2 340.4Z" fill="#E6EAF0"/>
<path d="M429.041 24.3499C435.701 23.0299 440.021 16.5499 438.701 9.89995C437.381 3.24995 430.911 -1.08005 424.251 0.239946C417.591 1.55995 413.271 8.03995 414.591 14.6899C415.911 21.3499 422.391 25.6699 429.041 24.3499Z" fill="#E6EAF0"/>
<path d="M390.929 51.68C397.589 50.36 401.909 43.88 400.589 37.23C399.269 30.58 392.789 26.25 386.139 27.57C379.479 28.89 375.159 35.36 376.479 42.02C377.799 48.68 384.279 53 390.929 51.68Z" fill="#E6EAF0"/>
<path d="M357.49 82.13C364.15 80.81 368.47 74.34 367.15 67.68C365.83 61.02 359.36 56.7 352.7 58.02C346.04 59.34 341.72 65.81 343.04 72.47C344.36 79.13 350.84 83.45 357.49 82.13Z" fill="#E6EAF0"/>
<path d="M329.801 113.46C336.461 112.14 340.781 105.66 339.461 99.01C338.141 92.35 331.671 88.03 325.011 89.35C318.351 90.67 314.031 97.14 315.351 103.8C316.671 110.46 323.151 114.78 329.801 113.46Z" fill="#E6EAF0"/>
<path d="M309.89 148.31C316.55 146.99 320.87 140.51 319.55 133.86C318.23 127.2 311.75 122.88 305.1 124.2C298.44 125.52 294.12 131.99 295.44 138.65C296.76 145.31 303.24 149.63 309.89 148.31Z" fill="#E6EAF0"/>
<path d="M293.689 178.87C300.349 177.55 304.669 171.08 303.349 164.42C302.029 157.76 295.559 153.44 288.899 154.76C282.239 156.08 277.919 162.55 279.239 169.21C280.559 175.87 287.029 180.19 293.689 178.87Z" fill="#E6EAF0"/>
<path d="M278.849 213.73C285.509 212.41 289.829 205.93 288.509 199.28C287.189 192.62 280.719 188.3 274.059 189.62C267.399 190.94 263.079 197.42 264.399 204.07C265.719 210.73 272.199 215.05 278.849 213.73Z" fill="#E6EAF0"/>
<path d="M276.67 248.59C283.33 247.27 287.65 240.79 286.33 234.14C285.01 227.48 278.54 223.16 271.88 224.48C265.22 225.8 260.9 232.28 262.22 238.93C263.54 245.59 270.02 249.91 276.67 248.59Z" fill="#E6EAF0"/>
<path d="M278.58 281.13C285.24 279.81 289.56 273.34 288.24 266.68C286.92 260.02 280.45 255.7 273.79 257.02C267.13 258.34 262.81 264.81 264.13 271.47C265.45 278.13 271.92 282.45 278.58 281.13Z" fill="#E6EAF0"/>
<path d="M283.23 312.1C289.89 310.78 294.21 304.3 292.89 297.65C291.57 290.99 285.09 286.67 278.44 287.99C271.78 289.31 267.46 295.79 268.78 302.44C270.1 309.09 276.58 313.42 283.23 312.1Z" fill="#E6EAF0"/>
<path d="M291.381 337.83C298.041 336.51 302.361 330.03 301.041 323.38C299.721 316.72 293.241 312.4 286.591 313.72C279.931 315.04 275.611 321.52 276.931 328.17C278.251 334.83 284.721 339.15 291.381 337.83Z" fill="#E6EAF0"/>
<path d="M303.429 360.24C310.089 358.92 314.409 352.45 313.089 345.79C311.769 339.13 305.289 334.81 298.639 336.13C291.979 337.45 287.659 343.92 288.979 350.58C290.299 357.24 296.779 361.56 303.429 360.24Z" fill="#E6EAF0"/>
<path d="M353.43 28.05C359.7 25.45 362.68 18.26 360.08 11.99C357.48 5.72001 350.29 2.74001 344.02 5.34001C337.75 7.94001 334.77 15.13 337.37 21.4C339.97 27.67 347.16 30.65 353.43 28.05Z" fill="#E6EAF0"/>
<path d="M321.391 62.29C327.661 59.69 330.641 52.5 328.041 46.23C325.441 39.96 318.251 36.98 311.981 39.58C305.711 42.18 302.73 49.37 305.33 55.64C307.93 61.91 315.121 64.89 321.391 62.29Z" fill="#E6EAF0"/>
<path d="M294.529 98.68C300.799 96.08 303.779 88.89 301.179 82.62C298.579 76.35 291.389 73.37 285.119 75.97C278.849 78.57 275.869 85.76 278.469 92.03C281.069 98.3 288.259 101.28 294.529 98.68Z" fill="#E6EAF0"/>
<path d="M273.48 134.82C279.75 132.22 282.73 125.03 280.13 118.76C277.53 112.49 270.34 109.51 264.07 112.11C257.8 114.71 254.82 121.9 257.42 128.17C260.02 134.44 267.21 137.42 273.48 134.82Z" fill="#E6EAF0"/>
<path d="M260.75 172.88C267.02 170.28 270 163.09 267.4 156.82C264.8 150.55 257.61 147.57 251.34 150.17C245.07 152.77 242.09 159.96 244.69 166.23C247.29 172.5 254.48 175.48 260.75 172.88Z" fill="#E6EAF0"/>
<path d="M250.83 206.02C257.1 203.42 260.08 196.23 257.48 189.96C254.88 183.69 247.69 180.71 241.42 183.31C235.15 185.91 232.17 193.1 234.77 199.37C237.37 205.64 244.56 208.62 250.83 206.02Z" fill="#E6EAF0"/>
<path d="M243.07 243.1C249.34 240.5 252.32 233.31 249.72 227.04C247.12 220.77 239.93 217.79 233.66 220.39C227.39 222.99 224.41 230.18 227.01 236.45C229.61 242.72 236.8 245.7 243.07 243.1Z" fill="#E6EAF0"/>
<path d="M247.74 277.72C254.01 275.12 256.99 267.93 254.39 261.66C251.79 255.39 244.6 252.41 238.33 255.01C232.06 257.61 229.08 264.8 231.68 271.07C234.28 277.34 241.47 280.32 247.74 277.72Z" fill="#E6EAF0"/>
<path d="M255.961 309.25C262.231 306.65 265.211 299.46 262.611 293.19C260.011 286.92 252.821 283.94 246.551 286.54C240.281 289.14 237.301 296.33 239.901 302.6C242.501 308.87 249.691 311.85 255.961 309.25Z" fill="#E6EAF0"/>
<path d="M266.56 338.73C272.83 336.13 275.81 328.94 273.21 322.67C270.61 316.4 263.42 313.42 257.15 316.02C250.88 318.62 247.9 325.81 250.5 332.08C253.1 338.35 260.29 341.33 266.56 338.73Z" fill="#E6EAF0"/>
<path d="M279.57 362.36C285.84 359.76 288.82 352.57 286.22 346.3C283.62 340.03 276.43 337.05 270.16 339.65C263.89 342.25 260.91 349.44 263.51 355.71C266.11 361.98 273.3 364.96 279.57 362.36Z" fill="#E6EAF0"/>
<path d="M295.769 382C302.039 379.4 305.019 372.21 302.419 365.94C299.819 359.67 292.629 356.69 286.359 359.29C280.089 361.89 277.109 369.08 279.709 375.35C282.309 381.62 289.499 384.6 295.769 382Z" fill="#E6EAF0"/>
<path d="M280 46.44C285.64 42.67 287.16 35.04 283.39 29.39C279.62 23.75 271.99 22.23 266.34 26C260.7 29.77 259.18 37.4 262.95 43.05C266.72 48.69 274.35 50.21 280 46.44Z" fill="#E6EAF0"/>
<path d="M255.25 86.2699C260.89 82.4999 262.41 74.8699 258.64 69.2199C254.87 63.5799 247.24 62.0599 241.59 65.8299C235.95 69.5999 234.43 77.2299 238.2 82.8799C241.97 88.5199 249.6 90.0399 255.25 86.2699Z" fill="#E6EAF0"/>
<path d="M236.01 127.2C241.65 123.43 243.17 115.8 239.4 110.15C235.63 104.51 228 102.99 222.35 106.76C216.71 110.53 215.19 118.16 218.96 123.81C222.73 129.45 230.36 130.97 236.01 127.2Z" fill="#E6EAF0"/>
<path d="M222.41 166.75C228.05 162.98 229.57 155.35 225.8 149.7C222.03 144.06 214.4 142.54 208.75 146.31C203.11 150.08 201.59 157.71 205.36 163.36C209.13 169 216.76 170.52 222.41 166.75Z" fill="#E6EAF0"/>
<path d="M217.35 206.56C222.99 202.79 224.51 195.16 220.74 189.51C216.97 183.87 209.34 182.35 203.69 186.12C198.05 189.89 196.53 197.52 200.3 203.17C204.07 208.81 211.7 210.33 217.35 206.56Z" fill="#E6EAF0"/>
<path d="M214.08 241C219.72 237.23 221.24 229.6 217.47 223.95C213.7 218.31 206.07 216.79 200.42 220.56C194.78 224.33 193.26 231.96 197.03 237.61C200.8 243.25 208.43 244.77 214.08 241Z" fill="#E6EAF0"/>
<path d="M213.709 278.88C219.349 275.11 220.869 267.48 217.099 261.83C213.329 256.18 205.699 254.67 200.049 258.44C194.409 262.21 192.889 269.84 196.659 275.49C200.429 281.13 208.059 282.65 213.709 278.88Z" fill="#E6EAF0"/>
<path d="M225.039 311.93C230.679 308.16 232.199 300.53 228.429 294.88C224.659 289.24 217.029 287.72 211.379 291.49C205.739 295.26 204.219 302.89 207.989 308.54C211.759 314.18 219.389 315.7 225.039 311.93Z" fill="#E6EAF0"/>
<path d="M239.25 341.25C244.89 337.48 246.41 329.85 242.64 324.2C238.87 318.56 231.24 317.04 225.59 320.81C219.95 324.58 218.43 332.21 222.2 337.86C225.97 343.5 233.6 345.02 239.25 341.25Z" fill="#E6EAF0"/>
<path d="M255.401 368.09C261.041 364.32 262.561 356.69 258.791 351.04C255.021 345.4 247.391 343.88 241.741 347.65C236.101 351.42 234.581 359.05 238.351 364.7C242.121 370.34 249.751 371.86 255.401 368.09Z" fill="#E6EAF0"/>
<path d="M272.78 388.74C278.42 384.97 279.94 377.34 276.17 371.69C272.4 366.05 264.77 364.53 259.12 368.3C253.48 372.07 251.96 379.7 255.73 385.35C259.5 390.99 267.13 392.51 272.78 388.74Z" fill="#E6EAF0"/>
<path d="M292.491 404.83C298.131 401.06 299.651 393.43 295.881 387.78C292.111 382.14 284.481 380.62 278.831 384.39C273.191 388.16 271.671 395.79 275.441 401.44C279.211 407.08 286.841 408.6 292.491 404.83Z" fill="#E6EAF0"/>
<path d="M211.56 78.8C216.36 74 216.36 66.2199 211.56 61.4199C206.76 56.6199 198.98 56.6199 194.18 61.4199C189.38 66.2199 189.38 74 194.18 78.8C198.98 83.6 206.76 83.6 211.56 78.8Z" fill="#E6EAF0"/>
<path d="M195.06 122.69C199.86 117.89 199.86 110.11 195.06 105.31C190.26 100.51 182.48 100.51 177.68 105.31C172.88 110.11 172.88 117.89 177.68 122.69C182.48 127.49 190.26 127.49 195.06 122.69Z" fill="#E6EAF0"/>
<path d="M184.169 166.59C188.969 161.79 188.969 154.01 184.169 149.21C179.369 144.41 171.589 144.41 166.789 149.21C161.989 154.01 161.989 161.79 166.789 166.59C171.589 171.39 179.369 171.39 184.169 166.59Z" fill="#E6EAF0"/>
<path d="M178.55 208.03C183.35 203.23 183.35 195.45 178.55 190.65C173.75 185.85 165.97 185.85 161.17 190.65C156.37 195.45 156.37 203.23 161.17 208.03C165.97 212.83 173.75 212.83 178.55 208.03Z" fill="#E6EAF0"/>
<path d="M181.361 248.06C186.161 243.26 186.161 235.48 181.361 230.68C176.561 225.88 168.781 225.88 163.981 230.68C159.181 235.48 159.181 243.26 163.981 248.06C168.781 252.86 176.561 252.86 181.361 248.06Z" fill="#E6EAF0"/>
<path d="M184.871 282.48C189.671 277.68 189.671 269.9 184.871 265.1C180.071 260.3 172.291 260.3 167.491 265.1C162.691 269.9 162.691 277.68 167.491 282.48C172.291 287.28 180.071 287.28 184.871 282.48Z" fill="#E6EAF0"/>
<path d="M191.89 319.7C196.69 314.9 196.69 307.12 191.89 302.32C187.09 297.52 179.31 297.52 174.51 302.32C169.71 307.12 169.71 314.9 174.51 319.7C179.31 324.5 187.09 324.5 191.89 319.7Z" fill="#E6EAF0"/>
<path d="M209.451 349.9C214.251 345.1 214.251 337.32 209.451 332.52C204.651 327.72 196.871 327.72 192.071 332.52C187.271 337.32 187.271 345.1 192.071 349.9C196.871 354.7 204.651 354.7 209.451 349.9Z" fill="#E6EAF0"/>
<path d="M229.111 375.89C233.911 371.09 233.911 363.31 229.111 358.51C224.311 353.71 216.531 353.71 211.731 358.51C206.931 363.31 206.931 371.09 211.731 375.89C216.531 380.69 224.311 380.69 229.111 375.89Z" fill="#E6EAF0"/>
<path d="M250.179 399.07C254.979 394.27 254.979 386.49 250.179 381.69C245.379 376.89 237.599 376.89 232.799 381.69C227.999 386.49 227.999 394.27 232.799 399.07C237.599 403.87 245.379 403.87 250.179 399.07Z" fill="#E6EAF0"/>
<path d="M271.25 415.93C276.05 411.13 276.05 403.35 271.25 398.55C266.45 393.75 258.67 393.75 253.87 398.55C249.07 403.35 249.07 411.13 253.87 415.93C258.67 420.73 266.45 420.73 271.25 415.93Z" fill="#E6EAF0"/>
<path d="M293.73 427.87C298.53 423.07 298.53 415.29 293.73 410.49C288.93 405.69 281.15 405.69 276.35 410.49C271.55 415.29 271.55 423.07 276.35 427.87C281.15 432.67 288.93 432.67 293.73 427.87Z" fill="#E6EAF0"/>
<path d="M150.759 123.88C154.529 118.24 153.009 110.6 147.369 106.83C141.729 103.06 134.089 104.58 130.319 110.22C126.549 115.86 128.069 123.5 133.709 127.27C139.349 131.04 146.989 129.52 150.759 123.88Z" fill="#E6EAF0"/>
<path d="M143.131 170.16C146.901 164.52 145.381 156.88 139.741 153.11C134.101 149.34 126.461 150.86 122.691 156.5C118.921 162.14 120.441 169.78 126.081 173.55C131.721 177.32 139.361 175.8 143.131 170.16Z" fill="#E6EAF0"/>
<path d="M141.009 215.33C144.779 209.69 143.259 202.05 137.619 198.28C131.979 194.51 124.339 196.03 120.569 201.67C116.799 207.31 118.319 214.95 123.959 218.72C129.599 222.49 137.239 220.97 141.009 215.33Z" fill="#E6EAF0"/>
<path d="M143.59 257.07C147.36 251.43 145.84 243.79 140.2 240.02C134.56 236.25 126.92 237.77 123.15 243.41C119.38 249.05 120.9 256.69 126.54 260.46C132.18 264.23 139.82 262.71 143.59 257.07Z" fill="#E6EAF0"/>
<path d="M154.15 295.79C157.92 290.15 156.4 282.51 150.76 278.74C145.12 274.97 137.48 276.49 133.71 282.13C129.94 287.77 131.46 295.41 137.1 299.18C142.74 302.95 150.38 301.43 154.15 295.79Z" fill="#E6EAF0"/>
<path d="M164.31 328.86C168.08 323.22 166.56 315.58 160.92 311.81C155.28 308.04 147.64 309.56 143.87 315.2C140.1 320.84 141.62 328.48 147.26 332.25C152.9 336.02 160.54 334.5 164.31 328.86Z" fill="#E6EAF0"/>
<path d="M178.461 364C182.231 358.36 180.711 350.72 175.071 346.95C169.431 343.18 161.791 344.7 158.021 350.34C154.251 355.98 155.771 363.62 161.411 367.39C167.051 371.16 174.691 369.64 178.461 364Z" fill="#E6EAF0"/>
<path d="M201.57 390.2C205.34 384.56 203.82 376.92 198.18 373.15C192.54 369.38 184.9 370.9 181.13 376.54C177.36 382.18 178.88 389.82 184.52 393.59C190.16 397.36 197.8 395.84 201.57 390.2Z" fill="#E6EAF0"/>
<path d="M225.929 411.85C229.699 406.21 228.179 398.57 222.539 394.8C216.899 391.03 209.259 392.55 205.489 398.19C201.719 403.83 203.239 411.47 208.879 415.24C214.519 419.01 222.159 417.49 225.929 411.85Z" fill="#E6EAF0"/>
<path d="M251.109 430.47C254.879 424.83 253.359 417.19 247.719 413.42C242.079 409.65 234.439 411.17 230.669 416.81C226.899 422.45 228.419 430.09 234.059 433.86C239.699 437.63 247.339 436.11 251.109 430.47Z" fill="#E6EAF0"/>
<path d="M275.07 442.89C278.84 437.25 277.32 429.61 271.68 425.84C266.04 422.07 258.4 423.59 254.63 429.23C250.86 434.87 252.38 442.51 258.02 446.28C263.66 450.05 271.3 448.53 275.07 442.89Z" fill="#E6EAF0"/>
<path d="M299.439 450.22C303.209 444.58 301.689 436.94 296.049 433.17C290.409 429.4 282.769 430.92 278.999 436.56C275.229 442.2 276.749 449.84 282.389 453.61C288.029 457.38 295.669 455.86 299.439 450.22Z" fill="#E6EAF0"/>
<path d="M99.9096 179.97C102.51 173.7 99.5296 166.51 93.2596 163.91C86.9896 161.31 79.7996 164.29 77.1996 170.56C74.5996 176.83 77.5796 184.02 83.8496 186.62C90.1196 189.22 97.3096 186.24 99.9096 179.97Z" fill="#E6EAF0"/>
<path d="M101.46 226.84C104.06 220.57 101.08 213.38 94.8104 210.78C88.5404 208.18 81.3504 211.16 78.7504 217.43C76.1504 223.7 79.1304 230.89 85.4004 233.49C91.6704 236.09 98.8604 233.11 101.46 226.84Z" fill="#E6EAF0"/>
<path d="M108.201 271.56C110.801 265.29 107.821 258.1 101.551 255.5C95.2806 252.9 88.0906 255.88 85.4906 262.15C82.8906 268.42 85.8706 275.61 92.1406 278.21C98.4106 280.81 105.601 277.83 108.201 271.56Z" fill="#E6EAF0"/>
<path d="M118.861 312C121.461 305.73 118.481 298.54 112.211 295.94C105.941 293.34 98.7508 296.32 96.1508 302.59C93.5508 308.86 96.5308 316.05 102.801 318.65C109.071 321.25 116.261 318.27 118.861 312Z" fill="#E6EAF0"/>
<path d="M136.781 347.91C139.381 341.64 136.401 334.45 130.131 331.85C123.861 329.25 116.671 332.23 114.071 338.5C111.471 344.77 114.451 351.96 120.721 354.56C126.991 357.16 134.181 354.18 136.781 347.91Z" fill="#E6EAF0"/>
<path d="M153.191 378.36C155.791 372.09 152.811 364.9 146.541 362.3C140.271 359.7 133.081 362.68 130.481 368.95C127.881 375.22 130.861 382.41 137.131 385.01C143.401 387.61 150.591 384.63 153.191 378.36Z" fill="#E6EAF0"/>
<path d="M173.919 410.07C176.519 403.8 173.539 396.61 167.269 394.01C160.999 391.41 153.809 394.39 151.209 400.66C148.609 406.93 151.589 414.12 157.859 416.72C164.129 419.32 171.319 416.34 173.919 410.07Z" fill="#E6EAF0"/>
<path d="M201.701 431.25C204.301 424.98 201.321 417.79 195.051 415.19C188.781 412.59 181.591 415.57 178.991 421.84C176.391 428.11 179.371 435.3 185.641 437.9C191.911 440.5 199.101 437.52 201.701 431.25Z" fill="#E6EAF0"/>
<path d="M229.81 447.73C232.41 441.46 229.43 434.27 223.16 431.67C216.89 429.07 209.7 432.05 207.1 438.32C204.5 444.59 207.48 451.78 213.75 454.38C220.02 456.98 227.21 454 229.81 447.73Z" fill="#E6EAF0"/>
<path d="M258.15 461.09C260.75 454.82 257.77 447.63 251.5 445.03C245.23 442.43 238.04 445.41 235.44 451.68C232.84 457.95 235.82 465.14 242.09 467.74C248.36 470.34 255.55 467.36 258.15 461.09Z" fill="#E6EAF0"/>
<path d="M284.07 468.6C286.67 462.33 283.69 455.14 277.42 452.54C271.15 449.94 263.96 452.92 261.36 459.19C258.76 465.46 261.74 472.65 268.01 475.25C274.28 477.85 281.47 474.87 284.07 468.6Z" fill="#E6EAF0"/>
<path d="M309.4 471.03C312 464.76 309.02 457.57 302.75 454.97C296.48 452.37 289.29 455.35 286.69 461.62C284.09 467.89 287.07 475.08 293.34 477.68C299.61 480.28 306.8 477.3 309.4 471.03Z" fill="#E6EAF0"/>
<path d="M60.9801 244.89C62.3001 238.23 57.9801 231.76 51.3201 230.44C44.6601 229.12 38.1901 233.44 36.8701 240.1C35.5501 246.76 39.8701 253.23 46.5301 254.55C53.1901 255.87 59.6601 251.55 60.9801 244.89Z" fill="#E6EAF0"/>
<path d="M71.6403 290.56C72.9603 283.9 68.6403 277.43 61.9803 276.11C55.3203 274.79 48.8503 279.11 47.5303 285.77C46.2103 292.43 50.5303 298.9 57.1903 300.22C63.8503 301.54 70.3203 297.22 71.6403 290.56Z" fill="#E6EAF0"/>
<path d="M86.9801 333.11C88.3001 326.45 83.9801 319.98 77.3201 318.66C70.6601 317.34 64.1901 321.66 62.8701 328.32C61.5501 334.98 65.8701 341.45 72.5301 342.77C79.1901 344.09 85.6601 339.77 86.9801 333.11Z" fill="#E6EAF0"/>
<path d="M105.33 370.69C106.65 364.03 102.33 357.56 95.6697 356.24C89.0097 354.92 82.5397 359.24 81.2197 365.9C79.8997 372.56 84.2197 379.03 90.8797 380.35C97.5397 381.67 104.01 377.35 105.33 370.69Z" fill="#E6EAF0"/>
<path d="M129.9 402.42C131.22 395.76 126.9 389.29 120.24 387.97C113.58 386.65 107.11 390.97 105.79 397.63C104.47 404.29 108.79 410.76 115.45 412.08C122.11 413.4 128.58 409.08 129.9 402.42Z" fill="#E6EAF0"/>
<path d="M151.939 429.08C153.259 422.42 148.939 415.95 142.279 414.63C135.619 413.31 129.149 417.63 127.829 424.29C126.509 430.95 130.829 437.42 137.489 438.74C144.149 440.06 150.619 435.74 151.939 429.08Z" fill="#E6EAF0"/>
<path d="M178.461 456.13C179.781 449.47 175.461 443 168.801 441.68C162.141 440.36 155.671 444.68 154.351 451.34C153.031 458 157.351 464.47 164.011 465.79C170.671 467.11 177.141 462.79 178.461 456.13Z" fill="#E6EAF0"/>
<path d="M209.839 471.49C211.159 464.83 206.839 458.36 200.179 457.04C193.519 455.72 187.049 460.04 185.729 466.7C184.409 473.36 188.729 479.83 195.389 481.15C202.049 482.47 208.519 478.15 209.839 471.49Z" fill="#E6EAF0"/>
<path d="M240.63 482.17C241.95 475.51 237.63 469.04 230.97 467.72C224.31 466.4 217.84 470.72 216.52 477.38C215.2 484.04 219.52 490.51 226.18 491.83C232.84 493.15 239.31 488.83 240.63 482.17Z" fill="#E6EAF0"/>
<path d="M271.031 489.74C272.351 483.08 268.031 476.61 261.371 475.29C254.711 473.97 248.241 478.29 246.921 484.95C245.601 491.61 249.921 498.08 256.581 499.4C263.241 500.72 269.711 496.4 271.031 489.74Z" fill="#E6EAF0"/>
<path d="M297.91 492.05C299.23 485.39 294.91 478.92 288.25 477.6C281.59 476.28 275.12 480.6 273.8 487.26C272.48 493.92 276.8 500.39 283.46 501.71C290.12 503.03 296.59 498.71 297.91 492.05Z" fill="#E6EAF0"/>
<path d="M323.23 489.49C324.55 482.83 320.23 476.36 313.57 475.04C306.91 473.72 300.44 478.04 299.12 484.7C297.8 491.36 302.12 497.83 308.78 499.15C315.44 500.47 321.91 496.15 323.23 489.49Z" fill="#E6EAF0"/>
<path d="M35.4706 316.16C35.4706 309.37 29.9706 303.87 23.1806 303.87C16.3906 303.87 10.8906 309.37 10.8906 316.16C10.8906 322.95 16.3906 328.45 23.1806 328.45C29.9706 328.45 35.4706 322.95 35.4706 316.16Z" fill="#E6EAF0"/>
<path d="M54.8398 358.88C54.8398 352.09 49.3398 346.59 42.5498 346.59C35.7598 346.59 30.2598 352.09 30.2598 358.88C30.2598 365.67 35.7598 371.17 42.5498 371.17C49.3398 371.17 54.8398 365.67 54.8398 358.88Z" fill="#E6EAF0"/>
<path d="M78.1796 397.61C78.1796 390.82 72.6796 385.32 65.8896 385.32C59.0996 385.32 53.5996 390.82 53.5996 397.61C53.5996 404.4 59.0996 409.9 65.8896 409.9C72.6796 409.9 78.1796 404.4 78.1796 397.61Z" fill="#E6EAF0"/>
<path d="M103.5 430.89C103.5 424.1 97.9999 418.6 91.2099 418.6C84.4199 418.6 78.9199 424.1 78.9199 430.89C78.9199 437.68 84.4199 443.18 91.2099 443.18C97.9999 443.18 103.5 437.68 103.5 430.89Z" fill="#E6EAF0"/>
<path d="M133.801 457.22C133.801 450.43 128.301 444.93 121.511 444.93C114.721 444.93 109.221 450.43 109.221 457.22C109.221 464.01 114.721 469.51 121.511 469.51C128.301 469.51 133.801 464.01 133.801 457.22Z" fill="#E6EAF0"/>
<path d="M160.609 479.07C160.609 472.28 155.109 466.78 148.319 466.78C141.529 466.78 136.029 472.28 136.029 479.07C136.029 485.86 141.529 491.36 148.319 491.36C155.109 491.36 160.609 485.86 160.609 479.07Z" fill="#E6EAF0"/>
<path d="M191.9 500.43C191.9 493.64 186.4 488.14 179.61 488.14C172.82 488.14 167.32 493.64 167.32 500.43C167.32 507.22 172.82 512.72 179.61 512.72C186.4 512.72 191.9 507.22 191.9 500.43Z" fill="#E6EAF0"/>
<path d="M225.67 509.37C225.67 502.58 220.17 497.08 213.38 497.08C206.59 497.08 201.09 502.58 201.09 509.37C201.09 516.16 206.59 521.66 213.38 521.66C220.17 521.66 225.67 516.16 225.67 509.37Z" fill="#E6EAF0"/>
<path d="M257.949 513.84C257.949 507.05 252.449 501.55 245.659 501.55C238.869 501.55 233.369 507.05 233.369 513.84C233.369 520.63 238.869 526.13 245.659 526.13C252.449 526.13 257.949 520.63 257.949 513.84Z" fill="#E6EAF0"/>
<path d="M289.24 515.33C289.24 508.54 283.74 503.04 276.95 503.04C270.16 503.04 264.66 508.54 264.66 515.33C264.66 522.12 270.16 527.62 276.95 527.62C283.74 527.62 289.24 522.12 289.24 515.33Z" fill="#E6EAF0"/>
<path d="M307.074 524.182C313.61 522.355 317.428 515.574 315.601 509.037C313.773 502.5 306.992 498.683 300.455 500.51C293.918 502.338 290.101 509.119 291.928 515.655C293.756 522.192 300.537 526.01 307.074 524.182Z" fill="#E6EAF0"/>
<path d="M340.4 504.9C340.4 498.11 334.9 492.61 328.11 492.61C321.32 492.61 315.82 498.11 315.82 504.9C315.82 511.69 321.32 517.19 328.11 517.19C334.9 517.19 340.4 511.69 340.4 504.9Z" fill="#E6EAF0"/>
<path d="M24.3492 391.04C23.0292 384.38 16.5592 380.06 9.89923 381.38C3.23923 382.7 -1.08076 389.17 0.239235 395.83C1.55924 402.49 8.02923 406.81 14.6892 405.49C21.3492 404.17 25.6692 397.7 24.3492 391.04Z" fill="#E6EAF0"/>
<path d="M51.6793 429.16C50.3593 422.5 43.8893 418.18 37.2293 419.5C30.5693 420.82 26.2493 427.29 27.5693 433.95C28.8893 440.61 35.3593 444.93 42.0193 443.61C48.6793 442.29 52.9993 435.82 51.6793 429.16Z" fill="#E6EAF0"/>
<path d="M82.1305 462.6C80.8105 455.94 74.3405 451.62 67.6805 452.94C61.0205 454.26 56.7005 460.73 58.0205 467.39C59.3405 474.05 65.8105 478.37 72.4705 477.05C79.1305 475.73 83.4505 469.26 82.1305 462.6Z" fill="#E6EAF0"/>
<path d="M113.461 490.29C112.141 483.63 105.671 479.31 99.0106 480.63C92.3506 481.95 88.0306 488.42 89.3506 495.08C90.6706 501.74 97.1406 506.06 103.801 504.74C110.461 503.42 114.781 496.95 113.461 490.29Z" fill="#E6EAF0"/>
<path d="M148.3 510.2C146.98 503.54 140.51 499.22 133.85 500.54C127.19 501.86 122.87 508.33 124.19 514.99C125.51 521.65 131.98 525.97 138.64 524.65C145.3 523.33 149.62 516.86 148.3 510.2Z" fill="#E6EAF0"/>
<path d="M178.871 526.41C177.551 519.75 171.081 515.43 164.421 516.75C157.761 518.07 153.441 524.54 154.761 531.2C156.081 537.86 162.551 542.18 169.211 540.86C175.871 539.54 180.191 533.07 178.871 526.41Z" fill="#E6EAF0"/>
<path d="M213.72 541.25C212.4 534.59 205.93 530.27 199.27 531.59C192.61 532.91 188.29 539.38 189.61 546.04C190.93 552.7 197.4 557.02 204.06 555.7C210.72 554.38 215.04 547.91 213.72 541.25Z" fill="#E6EAF0"/>
<path d="M248.589 543.43C247.269 536.77 240.799 532.45 234.139 533.77C227.479 535.09 223.159 541.56 224.479 548.22C225.799 554.88 232.269 559.2 238.929 557.88C245.589 556.56 249.909 550.09 248.589 543.43Z" fill="#E6EAF0"/>
<path d="M281.121 541.52C279.801 534.86 273.331 530.54 266.671 531.86C260.011 533.18 255.691 539.65 257.011 546.31C258.331 552.97 264.801 557.29 271.461 555.97C278.121 554.65 282.441 548.18 281.121 541.52Z" fill="#E6EAF0"/>
<path d="M312.099 536.88C310.779 530.22 304.309 525.9 297.649 527.22C290.989 528.54 286.669 535.01 287.989 541.67C289.309 548.33 295.779 552.65 302.439 551.33C309.099 550.01 313.419 543.54 312.099 536.88Z" fill="#E6EAF0"/>
<path d="M337.82 528.73C336.5 522.07 330.03 517.75 323.37 519.07C316.71 520.39 312.39 526.86 313.71 533.52C315.03 540.18 321.5 544.5 328.16 543.18C334.82 541.86 339.14 535.39 337.82 528.73Z" fill="#E6EAF0"/>
<path d="M360.24 516.67C358.92 510.01 352.45 505.69 345.79 507.01C339.13 508.33 334.81 514.8 336.13 521.46C337.45 528.12 343.92 532.44 350.58 531.12C357.24 529.8 361.56 523.33 360.24 516.67Z" fill="#E6EAF0"/>
<path d="M28.0502 466.65C25.4502 460.38 18.2603 457.4 11.9903 460C5.72025 462.6 2.74025 469.79 5.34025 476.06C7.94025 482.33 15.1302 485.31 21.4002 482.71C27.6702 480.11 30.6502 472.92 28.0502 466.65Z" fill="#E6EAF0"/>
<path d="M62.2905 498.7C59.6905 492.43 52.5005 489.45 46.2305 492.05C39.9605 494.65 36.9805 501.84 39.5805 508.11C42.1805 514.38 49.3705 517.36 55.6405 514.76C61.9105 512.16 64.8905 504.97 62.2905 498.7Z" fill="#E6EAF0"/>
<path d="M98.6792 525.56C96.0792 519.29 88.8892 516.31 82.6192 518.91C76.3492 521.51 73.3692 528.7 75.9692 534.97C78.5692 541.24 85.7592 544.22 92.0292 541.62C98.2992 539.02 101.279 531.83 98.6792 525.56Z" fill="#E6EAF0"/>
<path d="M134.81 546.61C132.21 540.34 125.02 537.36 118.75 539.96C112.48 542.56 109.5 549.75 112.1 556.02C114.7 562.29 121.89 565.27 128.16 562.67C134.43 560.07 137.41 552.88 134.81 546.61Z" fill="#E6EAF0"/>
<path d="M172.871 559.34C170.271 553.07 163.081 550.09 156.811 552.69C150.541 555.29 147.561 562.48 150.161 568.75C152.761 575.02 159.951 578 166.221 575.4C172.491 572.8 175.471 565.61 172.871 559.34Z" fill="#E6EAF0"/>
<path d="M206.009 569.27C203.409 563 196.219 560.02 189.949 562.62C183.679 565.22 180.699 572.41 183.299 578.68C185.899 584.95 193.089 587.93 199.359 585.33C205.629 582.73 208.609 575.54 206.009 569.27Z" fill="#E6EAF0"/>
<path d="M243.089 577.03C240.489 570.76 233.299 567.78 227.029 570.38C220.759 572.98 217.779 580.17 220.379 586.44C222.979 592.71 230.169 595.69 236.439 593.09C242.709 590.49 245.689 583.3 243.089 577.03Z" fill="#E6EAF0"/>
<path d="M277.71 572.37C275.11 566.1 267.92 563.12 261.65 565.72C255.38 568.32 252.4 575.51 255 581.78C257.6 588.05 264.79 591.03 271.06 588.43C277.33 585.83 280.31 578.64 277.71 572.37Z" fill="#E6EAF0"/>
<path d="M309.249 564.15C306.649 557.88 299.459 554.9 293.189 557.5C286.919 560.1 283.939 567.29 286.539 573.56C289.139 579.83 296.329 582.81 302.599 580.21C308.869 577.61 311.849 570.42 309.249 564.15Z" fill="#E6EAF0"/>
<path d="M338.73 553.55C336.13 547.28 328.94 544.3 322.67 546.9C316.4 549.5 313.42 556.69 316.02 562.96C318.62 569.23 325.81 572.21 332.08 569.61C338.35 567.01 341.33 559.82 338.73 553.55Z" fill="#E6EAF0"/>
<path d="M362.361 540.54C359.761 534.27 352.571 531.29 346.301 533.89C340.031 536.49 337.051 543.68 339.651 549.95C342.251 556.22 349.441 559.2 355.711 556.6C361.981 554 364.961 546.81 362.361 540.54Z" fill="#E6EAF0"/>
<path d="M381.999 524.34C379.399 518.07 372.209 515.09 365.939 517.69C359.669 520.29 356.689 527.48 359.289 533.75C361.889 540.02 369.079 543 375.349 540.4C381.619 537.8 384.599 530.61 381.999 524.34Z" fill="#E6EAF0"/>
<path d="M46.4294 540.09C42.6594 534.45 35.0294 532.93 29.3794 536.7C23.7394 540.47 22.2194 548.1 25.9894 553.75C29.7594 559.39 37.3894 560.91 43.0394 557.14C48.6794 553.37 50.1994 545.74 46.4294 540.09Z" fill="#E6EAF0"/>
<path d="M86.2601 564.84C82.4901 559.2 74.8601 557.68 69.2101 561.45C63.5601 565.22 62.0501 572.85 65.8201 578.5C69.5901 584.14 77.2201 585.66 82.8701 581.89C88.5201 578.12 90.0301 570.49 86.2601 564.84Z" fill="#E6EAF0"/>
<path d="M127.189 584.09C123.419 578.45 115.789 576.93 110.139 580.7C104.499 584.47 102.979 592.1 106.749 597.75C110.519 603.39 118.149 604.91 123.799 601.14C129.449 597.37 130.959 589.74 127.189 584.09Z" fill="#E6EAF0"/>
<path d="M166.74 597.69C162.97 592.05 155.34 590.53 149.69 594.3C144.05 598.07 142.53 605.7 146.3 611.35C150.07 616.99 157.7 618.51 163.35 614.74C168.99 610.97 170.51 603.34 166.74 597.69Z" fill="#E6EAF0"/>
<path d="M206.549 602.75C202.779 597.11 195.149 595.59 189.499 599.36C183.849 603.13 182.339 610.76 186.109 616.41C189.879 622.05 197.509 623.57 203.159 619.8C208.799 616.03 210.319 608.4 206.549 602.75Z" fill="#E6EAF0"/>
<path d="M240.99 606.02C237.22 600.38 229.59 598.86 223.94 602.63C218.3 606.4 216.78 614.03 220.55 619.68C224.32 625.33 231.95 626.84 237.6 623.07C243.24 619.3 244.76 611.67 240.99 606.02Z" fill="#E6EAF0"/>
<path d="M278.871 606.4C275.101 600.76 267.471 599.24 261.821 603.01C256.181 606.78 254.661 614.41 258.431 620.06C262.201 625.7 269.831 627.22 275.481 623.45C281.131 619.68 282.641 612.05 278.871 606.4Z" fill="#E6EAF0"/>
<path d="M311.92 595.07C308.15 589.43 300.52 587.91 294.87 591.68C289.23 595.45 287.71 603.08 291.48 608.73C295.25 614.37 302.88 615.89 308.53 612.12C314.17 608.35 315.69 600.72 311.92 595.07Z" fill="#E6EAF0"/>
<path d="M341.25 580.85C337.48 575.21 329.85 573.69 324.2 577.46C318.56 581.23 317.04 588.86 320.81 594.51C324.58 600.15 332.21 601.67 337.86 597.9C343.5 594.13 345.02 586.5 341.25 580.85Z" fill="#E6EAF0"/>
<path d="M368.09 564.71C364.32 559.07 356.69 557.55 351.04 561.32C345.4 565.09 343.88 572.72 347.65 578.37C351.42 584.01 359.05 585.53 364.7 581.76C370.34 577.99 371.86 570.36 368.09 564.71Z" fill="#E6EAF0"/>
<path d="M388.74 547.33C384.97 541.69 377.34 540.17 371.69 543.94C366.05 547.71 364.53 555.34 368.3 560.99C372.07 566.63 379.7 568.15 385.35 564.38C390.99 560.61 392.51 552.98 388.74 547.33Z" fill="#E6EAF0"/>
<path d="M404.83 527.62C401.06 521.98 393.43 520.46 387.78 524.23C382.14 528 380.62 535.63 384.39 541.28C388.16 546.92 395.79 548.44 401.44 544.67C407.08 540.9 408.6 533.27 404.83 527.62Z" fill="#E6EAF0"/>
<path d="M78.7905 608.53C73.9905 603.73 66.2105 603.73 61.4105 608.53C56.6105 613.33 56.6105 621.11 61.4105 625.91C66.2105 630.71 73.9905 630.71 78.7905 625.91C83.5905 621.11 83.5905 613.33 78.7905 608.53Z" fill="#E6EAF0"/>
<path d="M122.679 625.04C117.879 620.24 110.099 620.24 105.299 625.04C100.499 629.84 100.499 637.62 105.299 642.42C110.099 647.22 117.879 647.22 122.679 642.42C127.479 637.62 127.479 629.84 122.679 625.04Z" fill="#E6EAF0"/>
<path d="M166.58 635.93C161.78 631.13 154 631.13 149.2 635.93C144.4 640.73 144.4 648.51 149.2 653.31C154 658.11 161.78 658.11 166.58 653.31C171.38 648.51 171.38 640.73 166.58 635.93Z" fill="#E6EAF0"/>
<path d="M208.019 641.55C203.219 636.75 195.439 636.75 190.639 641.55C185.839 646.35 185.839 654.13 190.639 658.93C195.439 663.73 203.219 663.73 208.019 658.93C212.819 654.13 212.819 646.35 208.019 641.55Z" fill="#E6EAF0"/>
<path d="M248.05 638.74C243.25 633.94 235.47 633.94 230.67 638.74C225.87 643.54 225.87 651.32 230.67 656.12C235.47 660.92 243.25 660.92 248.05 656.12C252.85 651.32 252.85 643.54 248.05 638.74Z" fill="#E6EAF0"/>
<path d="M282.47 635.24C277.67 630.44 269.89 630.44 265.09 635.24C260.29 640.04 260.29 647.82 265.09 652.62C269.89 657.42 277.67 657.42 282.47 652.62C287.27 647.82 287.27 640.04 282.47 635.24Z" fill="#E6EAF0"/>
<path d="M319.701 628.22C314.901 623.42 307.121 623.42 302.321 628.22C297.521 633.02 297.521 640.8 302.321 645.6C307.121 650.4 314.901 650.4 319.701 645.6C324.501 640.8 324.501 633.02 319.701 628.22Z" fill="#E6EAF0"/>
<path d="M349.9 610.66C345.1 605.86 337.32 605.86 332.52 610.66C327.72 615.46 327.72 623.24 332.52 628.04C337.32 632.84 345.1 632.84 349.9 628.04C354.7 623.24 354.7 615.46 349.9 610.66Z" fill="#E6EAF0"/>
<path d="M375.89 591C371.09 586.2 363.31 586.2 358.51 591C353.71 595.8 353.71 603.58 358.51 608.38C363.31 613.18 371.09 613.18 375.89 608.38C380.69 603.58 380.69 595.8 375.89 591Z" fill="#E6EAF0"/>
<path d="M399.07 569.93C394.27 565.13 386.49 565.13 381.69 569.93C376.89 574.73 376.89 582.51 381.69 587.31C386.49 592.11 394.27 592.11 399.07 587.31C403.87 582.51 403.87 574.73 399.07 569.93Z" fill="#E6EAF0"/>
<path d="M415.929 548.86C411.129 544.06 403.349 544.06 398.549 548.86C393.749 553.66 393.749 561.44 398.549 566.24C403.349 571.04 411.129 571.04 415.929 566.24C420.729 561.44 420.729 553.66 415.929 548.86Z" fill="#E6EAF0"/>
<path d="M427.871 526.38C423.071 521.58 415.291 521.58 410.491 526.38C405.691 531.18 405.691 538.96 410.491 543.76C415.291 548.56 423.071 548.56 427.871 543.76C432.671 538.96 432.671 531.18 427.871 526.38Z" fill="#E6EAF0"/>
<path d="M123.869 669.34C118.229 665.57 110.589 667.09 106.819 672.73C103.049 678.37 104.569 686.01 110.209 689.78C115.849 693.55 123.489 692.03 127.259 686.39C131.029 680.75 129.509 673.11 123.869 669.34Z" fill="#E6EAF0"/>
<path d="M170.141 676.97C164.501 673.2 156.861 674.72 153.091 680.36C149.321 686 150.841 693.64 156.481 697.41C162.121 701.18 169.761 699.66 173.531 694.02C177.301 688.38 175.781 680.74 170.141 676.97Z" fill="#E6EAF0"/>
<path d="M215.321 679.09C209.681 675.32 202.041 676.84 198.271 682.48C194.501 688.12 196.021 695.76 201.661 699.53C207.301 703.3 214.941 701.78 218.711 696.14C222.481 690.5 220.961 682.86 215.321 679.09Z" fill="#E6EAF0"/>
<path d="M257.061 676.52C251.421 672.75 243.781 674.27 240.011 679.91C236.241 685.55 237.761 693.19 243.401 696.96C249.041 700.73 256.681 699.21 260.451 693.57C264.221 687.93 262.701 680.29 257.061 676.52Z" fill="#E6EAF0"/>
<path d="M295.78 665.96C290.14 662.19 282.5 663.71 278.73 669.35C274.96 674.99 276.48 682.63 282.12 686.4C287.76 690.17 295.4 688.65 299.17 683.01C302.94 677.37 301.42 669.73 295.78 665.96Z" fill="#E6EAF0"/>
<path d="M328.85 655.8C323.21 652.03 315.57 653.55 311.8 659.19C308.03 664.83 309.55 672.47 315.19 676.24C320.83 680.01 328.47 678.49 332.24 672.85C336.01 667.21 334.49 659.57 328.85 655.8Z" fill="#E6EAF0"/>
<path d="M363.991 641.65C358.351 637.88 350.711 639.4 346.941 645.04C343.171 650.68 344.691 658.32 350.331 662.09C355.971 665.86 363.611 664.34 367.381 658.7C371.151 653.06 369.631 645.42 363.991 641.65Z" fill="#E6EAF0"/>
<path d="M390.19 618.54C384.55 614.77 376.91 616.29 373.14 621.93C369.37 627.57 370.89 635.21 376.53 638.98C382.17 642.75 389.81 641.23 393.58 635.59C397.35 629.95 395.83 622.31 390.19 618.54Z" fill="#E6EAF0"/>
<path d="M411.84 594.18C406.2 590.41 398.56 591.93 394.79 597.57C391.02 603.21 392.54 610.85 398.18 614.62C403.82 618.39 411.46 616.87 415.23 611.23C419 605.59 417.48 597.95 411.84 594.18Z" fill="#E6EAF0"/>
<path d="M430.469 569C424.829 565.23 417.189 566.75 413.419 572.39C409.649 578.03 411.169 585.67 416.809 589.44C422.449 593.21 430.089 591.69 433.859 586.05C437.629 580.41 436.109 572.77 430.469 569Z" fill="#E6EAF0"/>
<path d="M442.891 545.05C437.251 541.28 429.611 542.8 425.841 548.44C422.071 554.08 423.591 561.72 429.231 565.49C434.871 569.26 442.511 567.74 446.281 562.1C450.051 556.46 448.531 548.82 442.891 545.05Z" fill="#E6EAF0"/>
<path d="M450.219 520.67C444.579 516.9 436.939 518.42 433.169 524.06C429.399 529.7 430.919 537.34 436.559 541.11C442.199 544.88 449.839 543.36 453.609 537.72C457.379 532.08 455.859 524.44 450.219 520.67Z" fill="#E6EAF0"/>
<path d="M347.9 683.33C341.63 680.73 334.44 683.71 331.84 689.98C329.24 696.25 332.22 703.44 338.49 706.04C344.76 708.64 351.95 705.66 354.55 699.39C357.15 693.12 354.17 685.93 347.9 683.33Z" fill="#E6EAF0"/>
<path d="M378.349 666.92C372.079 664.32 364.889 667.3 362.289 673.57C359.689 679.84 362.669 687.03 368.939 689.63C375.209 692.23 382.399 689.25 384.999 682.98C387.599 676.71 384.619 669.52 378.349 666.92Z" fill="#E6EAF0"/>
<path d="M410.06 646.19C403.79 643.59 396.6 646.57 394 652.84C391.4 659.11 394.38 666.3 400.65 668.9C406.92 671.5 414.11 668.52 416.71 662.25C419.31 655.98 416.33 648.79 410.06 646.19Z" fill="#E6EAF0"/>
<path d="M431.25 618.41C424.98 615.81 417.79 618.79 415.19 625.06C412.59 631.33 415.57 638.52 421.84 641.12C428.11 643.72 435.3 640.74 437.9 634.47C440.5 628.2 437.52 621.01 431.25 618.41Z" fill="#E6EAF0"/>
<path d="M447.73 590.3C441.46 587.7 434.27 590.68 431.67 596.95C429.07 603.22 432.05 610.41 438.32 613.01C444.59 615.61 451.78 612.63 454.38 606.36C456.98 600.09 454 592.9 447.73 590.3Z" fill="#E6EAF0"/>
<path d="M461.08 561.96C454.81 559.36 447.62 562.34 445.02 568.61C442.42 574.88 445.4 582.07 451.67 584.67C457.94 587.27 465.13 584.29 467.73 578.02C470.33 571.75 467.35 564.56 461.08 561.96Z" fill="#E6EAF0"/>
<path d="M468.599 536.05C462.329 533.45 455.139 536.43 452.539 542.7C449.939 548.97 452.919 556.16 459.189 558.76C465.459 561.36 472.649 558.38 475.249 552.11C477.849 545.84 474.869 538.65 468.599 536.05Z" fill="#E6EAF0"/>
<path d="M471.029 510.71C464.759 508.11 457.569 511.09 454.969 517.36C452.369 523.63 455.349 530.82 461.619 533.42C467.889 536.02 475.079 533.04 477.679 526.77C480.279 520.5 477.299 513.31 471.029 510.71Z" fill="#E6EAF0"/>
<path d="M429.071 668.17C422.411 666.85 415.941 671.17 414.621 677.83C413.291 684.49 417.621 690.96 424.281 692.28C430.941 693.61 437.411 689.28 438.731 682.62C440.061 675.96 435.731 669.49 429.071 668.17Z" fill="#E6EAF0"/>
<path d="M456.131 641.65C449.471 640.33 443.001 644.65 441.681 651.31C440.361 657.97 444.681 664.44 451.341 665.76C458.001 667.09 464.471 662.76 465.791 656.1C467.111 649.44 462.791 642.97 456.131 641.65Z" fill="#E6EAF0"/>
<path d="M471.491 610.28C464.831 608.96 458.361 613.28 457.041 619.94C455.711 626.6 460.041 633.07 466.701 634.39C473.361 635.72 479.831 631.39 481.151 624.73C482.481 618.07 478.151 611.6 471.491 610.28Z" fill="#E6EAF0"/>
<path d="M482.171 579.49C475.511 578.16 469.041 582.49 467.721 589.15C466.391 595.81 470.721 602.28 477.381 603.6C484.041 604.93 490.511 600.6 491.831 593.94C493.151 587.28 488.831 580.81 482.171 579.49Z" fill="#E6EAF0"/>
<path d="M489.741 549.09C483.081 547.77 476.611 552.09 475.291 558.75C473.961 565.41 478.291 571.88 484.951 573.2C491.611 574.53 498.081 570.2 499.401 563.54C500.731 556.88 496.401 550.41 489.741 549.09Z" fill="#E6EAF0"/>
<path d="M492.051 522.21C485.391 520.89 478.921 525.21 477.601 531.87C476.281 538.53 480.601 545 487.261 546.32C493.921 547.65 500.391 543.32 501.711 536.66C503.041 530 498.711 523.53 492.051 522.21Z" fill="#E6EAF0"/>
<path d="M489.5 496.88C482.84 495.56 476.37 499.88 475.05 506.54C473.73 513.2 478.05 519.67 484.71 520.99C491.37 522.32 497.84 517.99 499.16 511.33C500.49 504.67 496.16 498.2 489.5 496.88Z" fill="#E6EAF0"/>
<path d="M479.06 659.5C472.27 659.5 466.77 665 466.77 671.79C466.77 678.58 472.27 684.08 479.06 684.08C485.85 684.08 491.35 678.58 491.35 671.79C491.35 665 485.85 659.5 479.06 659.5Z" fill="#E6EAF0"/>
<path d="M500.421 628.22C493.631 628.22 488.131 633.72 488.131 640.51C488.131 647.3 493.631 652.8 500.421 652.8C507.211 652.8 512.711 647.3 512.711 640.51C512.711 633.72 507.211 628.22 500.421 628.22Z" fill="#E6EAF0"/>
<path d="M509.37 594.45C502.58 594.45 497.08 599.95 497.08 606.74C497.08 613.53 502.58 619.03 509.37 619.03C516.16 619.03 521.66 613.53 521.66 606.74C521.66 599.95 516.16 594.45 509.37 594.45Z" fill="#E6EAF0"/>
<path d="M513.841 562.16C507.051 562.16 501.551 567.66 501.551 574.45C501.551 581.24 507.051 586.74 513.841 586.74C520.631 586.74 526.131 581.24 526.131 574.45C526.131 567.66 520.631 562.16 513.841 562.16Z" fill="#E6EAF0"/>
<path d="M515.329 530.87C508.539 530.87 503.039 536.37 503.039 543.16C503.039 549.95 508.539 555.45 515.329 555.45C522.119 555.45 527.619 549.95 527.619 543.16C527.619 536.37 522.119 530.87 515.329 530.87Z" fill="#E6EAF0"/>
<path d="M512.36 504.05C505.57 504.05 500.07 509.55 500.07 516.34C500.07 523.13 505.57 528.63 512.36 528.63C519.15 528.63 524.65 523.13 524.65 516.34C524.65 509.55 519.15 504.05 512.36 504.05Z" fill="#E6EAF0"/>
<path d="M504.909 479.72C498.119 479.72 492.619 485.22 492.619 492.01C492.619 498.8 498.119 504.3 504.909 504.3C511.699 504.3 517.199 498.8 517.199 492.01C517.199 485.22 511.699 479.72 504.909 479.72Z" fill="#E6EAF0"/>
<path d="M510.2 671.81C503.54 673.13 499.22 679.6 500.54 686.26C501.86 692.92 508.33 697.24 514.99 695.92C521.65 694.6 525.97 688.13 524.65 681.47C523.33 674.81 516.86 670.49 510.2 671.81Z" fill="#E6EAF0"/>
<path d="M526.401 641.25C519.741 642.57 515.421 649.04 516.741 655.7C518.061 662.36 524.531 666.68 531.191 665.36C537.851 664.04 542.171 657.57 540.851 650.91C539.531 644.25 533.061 639.93 526.401 641.25Z" fill="#E6EAF0"/>
<path d="M541.251 606.4C534.591 607.72 530.271 614.19 531.591 620.85C532.911 627.51 539.381 631.83 546.041 630.51C552.701 629.19 557.021 622.72 555.701 616.06C554.381 609.4 547.911 605.08 541.251 606.4Z" fill="#E6EAF0"/>
<path d="M543.43 571.53C536.77 572.85 532.45 579.32 533.77 585.98C535.09 592.64 541.56 596.96 548.22 595.64C554.88 594.32 559.2 587.85 557.88 581.19C556.56 574.53 550.09 570.21 543.43 571.53Z" fill="#E6EAF0"/>
<path d="M541.52 539C534.86 540.32 530.54 546.79 531.86 553.45C533.18 560.11 539.65 564.43 546.31 563.11C552.97 561.79 557.29 555.32 555.97 548.66C554.65 542 548.18 537.68 541.52 539Z" fill="#E6EAF0"/>
<path d="M536.88 508.02C530.22 509.34 525.9 515.81 527.22 522.47C528.54 529.13 535.01 533.45 541.67 532.13C548.33 530.81 552.65 524.34 551.33 517.68C550.01 511.02 543.54 506.7 536.88 508.02Z" fill="#E6EAF0"/>
<path d="M528.729 482.29C522.069 483.61 517.749 490.08 519.069 496.74C520.389 503.4 526.859 507.72 533.519 506.4C540.179 505.08 544.499 498.61 543.179 491.95C541.859 485.29 535.389 480.97 528.729 482.29Z" fill="#E6EAF0"/>
<path d="M516.68 459.88C510.02 461.2 505.7 467.67 507.02 474.33C508.34 480.99 514.81 485.31 521.47 483.99C528.13 482.67 532.451 476.2 531.131 469.54C529.811 462.88 523.34 458.56 516.68 459.88Z" fill="#E6EAF0"/>
<path d="M546.609 685.31C540.339 687.91 537.359 695.1 539.959 701.37C542.559 707.64 549.749 710.62 556.019 708.02C562.289 705.42 565.269 698.23 562.669 691.96C560.069 685.69 552.879 682.71 546.609 685.31Z" fill="#E6EAF0"/>
<path d="M559.34 647.25C553.07 649.85 550.09 657.04 552.69 663.31C555.29 669.58 562.48 672.56 568.75 669.96C575.02 667.36 578 660.17 575.4 653.9C572.8 647.63 565.61 644.65 559.34 647.25Z" fill="#E6EAF0"/>
<path d="M569.27 614.11C563 616.71 560.02 623.9 562.62 630.17C565.22 636.44 572.41 639.42 578.68 636.82C584.95 634.22 587.93 627.03 585.33 620.76C582.73 614.49 575.54 611.51 569.27 614.11Z" fill="#E6EAF0"/>
<path d="M577.029 577.03C570.759 579.63 567.779 586.82 570.379 593.09C572.979 599.36 580.169 602.34 586.439 599.74C592.709 597.14 595.689 589.95 593.089 583.68C590.489 577.41 583.299 574.43 577.029 577.03Z" fill="#E6EAF0"/>
<path d="M572.369 542.41C566.099 545.01 563.119 552.2 565.719 558.47C568.319 564.74 575.509 567.72 581.779 565.12C588.049 562.52 591.029 555.33 588.429 549.06C585.829 542.79 578.639 539.81 572.369 542.41Z" fill="#E6EAF0"/>
<path d="M564.15 510.87C557.88 513.47 554.9 520.66 557.5 526.93C560.1 533.2 567.29 536.18 573.56 533.58C579.83 530.98 582.81 523.79 580.21 517.52C577.61 511.25 570.42 508.27 564.15 510.87Z" fill="#E6EAF0"/>
<path d="M553.561 481.39C547.291 483.99 544.311 491.18 546.911 497.45C549.511 503.72 556.701 506.7 562.971 504.1C569.241 501.5 572.221 494.31 569.621 488.04C567.021 481.77 559.831 478.79 553.561 481.39Z" fill="#E6EAF0"/>
<path d="M540.539 457.75C534.269 460.35 531.289 467.54 533.889 473.81C536.489 480.08 543.679 483.06 549.949 480.46C556.219 477.86 559.199 470.67 556.599 464.4C553.999 458.13 546.809 455.15 540.539 457.75Z" fill="#E6EAF0"/>
<path d="M524.35 438.12C518.08 440.72 515.1 447.91 517.7 454.18C520.3 460.45 527.49 463.43 533.76 460.83C540.03 458.23 543.01 451.04 540.41 444.77C537.81 438.5 530.62 435.52 524.35 438.12Z" fill="#E6EAF0"/>
<path d="M597.69 653.38C592.05 657.15 590.53 664.78 594.3 670.43C598.07 676.07 605.7 677.59 611.35 673.82C616.99 670.05 618.51 662.42 614.74 656.77C610.97 651.13 603.34 649.61 597.69 653.38Z" fill="#E6EAF0"/>
<path d="M602.75 613.57C597.11 617.34 595.59 624.97 599.36 630.62C603.13 636.26 610.76 637.78 616.41 634.01C622.05 630.24 623.57 622.61 619.8 616.96C616.03 611.32 608.4 609.8 602.75 613.57Z" fill="#E6EAF0"/>
<path d="M606.02 579.13C600.38 582.9 598.86 590.53 602.63 596.18C606.4 601.82 614.03 603.34 619.68 599.57C625.32 595.8 626.84 588.17 623.07 582.52C619.3 576.88 611.67 575.36 606.02 579.13Z" fill="#E6EAF0"/>
<path d="M606.401 541.25C600.761 545.02 599.241 552.65 603.011 558.3C606.781 563.94 614.411 565.46 620.061 561.69C625.701 557.92 627.221 550.29 623.451 544.64C619.681 539 612.051 537.48 606.401 541.25Z" fill="#E6EAF0"/>
<path d="M595.071 508.2C589.431 511.97 587.911 519.6 591.681 525.25C595.451 530.89 603.081 532.41 608.731 528.64C614.371 524.87 615.891 517.24 612.121 511.59C608.351 505.95 600.721 504.43 595.071 508.2Z" fill="#E6EAF0"/>
<path d="M580.86 478.87C575.22 482.64 573.7 490.27 577.47 495.92C581.24 501.56 588.87 503.08 594.52 499.31C600.17 495.54 601.68 487.91 597.91 482.26C594.14 476.61 586.51 475.1 580.86 478.87Z" fill="#E6EAF0"/>
<path d="M564.719 452.03C559.079 455.8 557.559 463.43 561.329 469.08C565.099 474.72 572.729 476.24 578.379 472.47C584.019 468.7 585.539 461.07 581.769 455.42C577.999 449.78 570.369 448.26 564.719 452.03Z" fill="#E6EAF0"/>
<path d="M547.34 431.38C541.7 435.15 540.18 442.78 543.95 448.43C547.72 454.07 555.35 455.59 561 451.82C566.64 448.05 568.16 440.42 564.39 434.77C560.62 429.13 552.99 427.61 547.34 431.38Z" fill="#E6EAF0"/>
<path d="M527.629 415.28C521.989 419.05 520.469 426.68 524.239 432.33C528.009 437.97 535.639 439.49 541.289 435.72C546.939 431.95 548.449 424.32 544.679 418.67C540.909 413.03 533.279 411.51 527.629 415.28Z" fill="#E6EAF0"/>
<path d="M635.93 653.55C631.13 658.35 631.13 666.13 635.93 670.93C640.73 675.73 648.51 675.73 653.31 670.93C658.11 666.13 658.11 658.35 653.31 653.55C648.51 648.75 640.73 648.75 635.93 653.55Z" fill="#E6EAF0"/>
<path d="M641.549 612.11C636.749 616.91 636.749 624.69 641.549 629.49C646.349 634.29 654.129 634.29 658.929 629.49C663.729 624.69 663.729 616.91 658.929 612.11C654.129 607.31 646.349 607.31 641.549 612.11Z" fill="#E6EAF0"/>
<path d="M638.75 572.07C633.95 576.87 633.95 584.65 638.75 589.45C643.55 594.25 651.33 594.25 656.13 589.45C660.93 584.65 660.93 576.87 656.13 572.07C651.33 567.27 643.55 567.27 638.75 572.07Z" fill="#E6EAF0"/>
<path d="M635.241 537.65C630.441 542.45 630.441 550.23 635.241 555.03C640.041 559.83 647.821 559.83 652.621 555.03C657.421 550.23 657.421 542.45 652.621 537.65C647.821 532.85 640.041 532.85 635.241 537.65Z" fill="#E6EAF0"/>
<path d="M628.219 500.43C623.419 505.23 623.419 513.01 628.219 517.81C633.019 522.61 640.799 522.61 645.599 517.81C650.399 513.01 650.399 505.23 645.599 500.43C640.799 495.63 633.019 495.63 628.219 500.43Z" fill="#E6EAF0"/>
<path d="M610.67 470.22C605.87 475.02 605.87 482.8 610.67 487.6C615.47 492.4 623.25 492.4 628.05 487.6C632.85 482.8 632.85 475.02 628.05 470.22C623.25 465.42 615.47 465.42 610.67 470.22Z" fill="#E6EAF0"/>
<path d="M591 444.23C586.2 449.03 586.2 456.81 591 461.61C595.8 466.41 603.58 466.41 608.38 461.61C613.18 456.81 613.18 449.03 608.38 444.23C603.58 439.43 595.8 439.43 591 444.23Z" fill="#E6EAF0"/>
<path d="M569.94 421.05C565.14 425.85 565.14 433.63 569.94 438.43C574.74 443.23 582.52 443.23 587.32 438.43C592.12 433.63 592.12 425.85 587.32 421.05C582.52 416.25 574.74 416.25 569.94 421.05Z" fill="#E6EAF0"/>
<path d="M548.87 404.19C544.07 408.99 544.07 416.77 548.87 421.57C553.67 426.37 561.45 426.37 566.25 421.57C571.05 416.77 571.05 408.99 566.25 404.19C561.45 399.39 553.67 399.39 548.87 404.19Z" fill="#E6EAF0"/>
<path d="M526.389 392.25C521.589 397.05 521.589 404.83 526.389 409.63C531.189 414.43 538.969 414.43 543.769 409.63C548.569 404.83 548.569 397.05 543.769 392.25C538.969 387.45 531.189 387.45 526.389 392.25Z" fill="#E6EAF0"/>
<path d="M676.97 649.99C673.2 655.63 674.71 663.27 680.36 667.04C686 670.81 693.64 669.29 697.41 663.65C701.18 658.01 699.661 650.37 694.021 646.6C688.381 642.83 680.74 644.34 676.97 649.99Z" fill="#E6EAF0"/>
<path d="M679.09 604.81C675.32 610.45 676.83 618.09 682.48 621.86C688.12 625.63 695.76 624.12 699.53 618.47C703.3 612.83 701.79 605.19 696.14 601.42C690.5 597.65 682.86 599.17 679.09 604.81Z" fill="#E6EAF0"/>
<path d="M676.519 563.06C672.749 568.7 674.259 576.34 679.909 580.11C685.549 583.88 693.189 582.37 696.959 576.72C700.729 571.08 699.219 563.44 693.569 559.67C687.929 555.9 680.289 557.42 676.519 563.06Z" fill="#E6EAF0"/>
<path d="M665.96 524.34C662.19 529.98 663.71 537.62 669.35 541.39C674.99 545.16 682.63 543.64 686.4 538C690.17 532.36 688.66 524.72 683.01 520.95C677.36 517.18 669.73 518.69 665.96 524.34Z" fill="#E6EAF0"/>
<path d="M655.81 491.27C652.04 496.91 653.55 504.55 659.2 508.32C664.85 512.09 672.48 510.57 676.25 504.93C680.02 499.29 678.51 491.65 672.86 487.88C667.22 484.11 659.58 485.63 655.81 491.27Z" fill="#E6EAF0"/>
<path d="M641.66 456.13C637.89 461.77 639.4 469.41 645.05 473.18C650.69 476.95 658.33 475.43 662.1 469.79C665.87 464.15 664.35 456.51 658.71 452.74C653.07 448.97 645.43 450.49 641.66 456.13Z" fill="#E6EAF0"/>
<path d="M618.55 429.93C614.78 435.57 616.3 443.21 621.94 446.98C627.58 450.75 635.22 449.23 638.99 443.59C642.76 437.95 641.25 430.31 635.6 426.54C629.96 422.77 622.32 424.28 618.55 429.93Z" fill="#E6EAF0"/>
<path d="M594.2 408.27C590.43 413.91 591.95 421.55 597.59 425.32C603.23 429.09 610.87 427.58 614.64 421.93C618.41 416.29 616.89 408.65 611.25 404.88C605.61 401.11 597.97 402.62 594.2 408.27Z" fill="#E6EAF0"/>
<path d="M569.011 389.65C565.241 395.29 566.761 402.93 572.401 406.7C578.041 410.47 585.681 408.96 589.451 403.31C593.221 397.67 591.711 390.03 586.061 386.26C580.421 382.49 572.781 384 569.011 389.65Z" fill="#E6EAF0"/>
<path d="M545.06 377.22C541.29 382.86 542.8 390.5 548.45 394.27C554.09 398.04 561.73 396.52 565.5 390.88C569.27 385.24 567.76 377.6 562.11 373.83C556.47 370.06 548.83 371.57 545.06 377.22Z" fill="#E6EAF0"/>
<path d="M520.679 369.89C516.909 375.53 518.419 383.17 524.069 386.94C529.719 390.71 537.349 389.19 541.119 383.55C544.889 377.91 543.379 370.27 537.729 366.5C532.089 362.73 524.449 364.24 520.679 369.89Z" fill="#E6EAF0"/>
<path d="M720.19 640.18C717.59 646.45 720.57 653.64 726.84 656.24C733.11 658.84 740.3 655.86 742.9 649.59C745.5 643.32 742.52 636.13 736.25 633.53C729.98 630.93 722.79 633.91 720.19 640.18Z" fill="#E6EAF0"/>
<path d="M718.651 593.31C716.051 599.58 719.031 606.77 725.301 609.37C731.571 611.97 738.761 608.99 741.361 602.72C743.961 596.45 740.981 589.26 734.711 586.66C728.441 584.06 721.251 587.04 718.651 593.31Z" fill="#E6EAF0"/>
<path d="M711.911 548.58C709.311 554.85 712.291 562.04 718.561 564.64C724.831 567.24 732.021 564.26 734.621 557.99C737.221 551.72 734.241 544.53 727.971 541.93C721.701 539.33 714.511 542.31 711.911 548.58Z" fill="#E6EAF0"/>
<path d="M701.25 508.14C698.65 514.41 701.63 521.6 707.9 524.2C714.17 526.8 721.36 523.82 723.96 517.55C726.56 511.28 723.58 504.09 717.31 501.49C711.04 498.89 703.85 501.87 701.25 508.14Z" fill="#E6EAF0"/>
<path d="M683.34 472.23C680.74 478.5 683.72 485.69 689.99 488.29C696.26 490.89 703.45 487.91 706.05 481.64C708.65 475.37 705.67 468.18 699.4 465.58C693.13 462.98 685.94 465.96 683.34 472.23Z" fill="#E6EAF0"/>
<path d="M666.93 441.77C664.33 448.04 667.31 455.23 673.58 457.83C679.85 460.43 687.04 457.45 689.64 451.18C692.24 444.91 689.26 437.72 682.99 435.12C676.72 432.52 669.53 435.5 666.93 441.77Z" fill="#E6EAF0"/>
<path d="M646.2 410.06C643.6 416.33 646.58 423.52 652.85 426.12C659.12 428.72 666.31 425.74 668.91 419.47C671.51 413.2 668.53 406.01 662.26 403.41C655.99 400.81 648.8 403.79 646.2 410.06Z" fill="#E6EAF0"/>
<path d="M618.42 388.87C615.82 395.14 618.8 402.33 625.07 404.93C631.34 407.53 638.53 404.55 641.13 398.28C643.73 392.01 640.75 384.82 634.48 382.22C628.21 379.62 621.02 382.6 618.42 388.87Z" fill="#E6EAF0"/>
<path d="M590.311 372.39C587.711 378.66 590.691 385.85 596.961 388.45C603.231 391.05 610.421 388.07 613.021 381.8C615.621 375.53 612.641 368.34 606.371 365.74C600.101 363.14 592.911 366.12 590.311 372.39Z" fill="#E6EAF0"/>
<path d="M561.981 359.03C559.381 365.3 562.361 372.49 568.631 375.09C574.901 377.69 582.091 374.71 584.691 368.44C587.291 362.17 584.311 354.98 578.041 352.38C571.771 349.78 564.581 352.76 561.981 359.03Z" fill="#E6EAF0"/>
<path d="M536.061 351.52C533.461 357.79 536.441 364.98 542.711 367.58C548.981 370.18 556.171 367.2 558.771 360.93C561.371 354.66 558.391 347.47 552.121 344.87C545.851 342.27 538.661 345.25 536.061 351.52Z" fill="#E6EAF0"/>
<path d="M510.719 349.08C508.119 355.35 511.099 362.54 517.369 365.14C523.639 367.74 530.829 364.76 533.429 358.49C536.029 352.22 533.049 345.03 526.779 342.43C520.509 339.83 513.319 342.81 510.719 349.08Z" fill="#E6EAF0"/>
<path d="M759.131 575.26C757.801 581.92 762.131 588.39 768.791 589.72C775.451 591.05 781.921 586.72 783.251 580.06C784.581 573.4 780.251 566.93 773.591 565.6C766.931 564.27 760.461 568.6 759.131 575.26Z" fill="#E6EAF0"/>
<path d="M748.471 529.58C747.141 536.24 751.471 542.71 758.131 544.04C764.791 545.37 771.261 541.04 772.591 534.38C773.921 527.72 769.591 521.25 762.931 519.92C756.271 518.59 749.801 522.92 748.471 529.58Z" fill="#E6EAF0"/>
<path d="M733.14 487.03C731.81 493.69 736.14 500.16 742.8 501.49C749.46 502.82 755.93 498.49 757.26 491.83C758.59 485.17 754.26 478.7 747.6 477.37C740.94 476.04 734.47 480.37 733.14 487.03Z" fill="#E6EAF0"/>
<path d="M714.801 449.45C713.471 456.11 717.801 462.58 724.461 463.91C731.121 465.24 737.591 460.91 738.921 454.25C740.251 447.59 735.921 441.12 729.261 439.79C722.601 438.46 716.131 442.79 714.801 449.45Z" fill="#E6EAF0"/>
<path d="M690.221 417.72C688.891 424.38 693.221 430.85 699.881 432.18C706.541 433.51 713.011 429.18 714.341 422.52C715.671 415.86 711.341 409.39 704.691 408.06C698.031 406.73 691.561 411.06 690.231 417.72H690.221Z" fill="#E6EAF0"/>
<path d="M668.19 391.05C666.87 397.71 671.19 404.18 677.85 405.51C684.51 406.84 690.98 402.51 692.31 395.85C693.64 389.19 689.31 382.72 682.65 381.39C675.99 380.06 669.52 384.39 668.19 391.05Z" fill="#E6EAF0"/>
<path d="M641.67 363.99C640.34 370.65 644.67 377.12 651.33 378.45C657.99 379.78 664.46 375.45 665.79 368.79C667.12 362.13 662.79 355.66 656.13 354.33C649.47 353 643 357.33 641.67 363.99Z" fill="#E6EAF0"/>
<path d="M610.291 348.63C608.961 355.29 613.291 361.76 619.951 363.09C626.611 364.42 633.081 360.09 634.411 353.43C635.741 346.77 631.411 340.3 624.751 338.97C618.091 337.64 611.621 341.97 610.291 348.63Z" fill="#E6EAF0"/>
<path d="M579.5 337.94C578.17 344.6 582.5 351.07 589.16 352.4C595.82 353.73 602.29 349.4 603.62 342.75C604.95 336.09 600.62 329.62 593.96 328.29C587.3 326.96 580.83 331.29 579.51 337.95L579.5 337.94Z" fill="#E6EAF0"/>
<path d="M549.111 330.37C547.781 337.03 552.111 343.5 558.771 344.82C565.431 346.15 571.901 341.82 573.231 335.16C574.561 328.5 570.231 322.03 563.571 320.7C556.911 319.37 550.441 323.7 549.111 330.36V330.37Z" fill="#E6EAF0"/>
<path d="M522.221 328.06C520.891 334.72 525.221 341.19 531.881 342.52C538.541 343.85 545.011 339.52 546.341 332.86C547.671 326.2 543.341 319.73 536.681 318.4C530.021 317.07 523.551 321.4 522.221 328.06Z" fill="#E6EAF0"/>
<path d="M496.9 330.61C495.57 337.27 499.9 343.74 506.56 345.07C513.22 346.4 519.69 342.07 521.02 335.41C522.35 328.75 518.02 322.28 511.37 320.95C504.71 319.62 498.24 323.95 496.91 330.61H496.9Z" fill="#E6EAF0"/>
<path d="M784.65 503.99C784.65 510.78 790.15 516.28 796.94 516.28C803.73 516.28 809.23 510.78 809.23 503.99C809.23 497.2 803.73 491.7 796.94 491.7C790.15 491.7 784.65 497.2 784.65 503.99Z" fill="#E6EAF0"/>
<path d="M765.289 461.27C765.289 468.06 770.789 473.56 777.579 473.56C784.369 473.56 789.869 468.06 789.869 461.27C789.869 454.48 784.369 448.98 777.579 448.98C770.789 448.98 765.289 454.48 765.289 461.27Z" fill="#E6EAF0"/>
<path d="M741.949 422.53C741.949 429.32 747.449 434.82 754.239 434.82C761.029 434.82 766.529 429.32 766.529 422.53C766.529 415.74 761.029 410.24 754.239 410.24C747.449 410.24 741.949 415.74 741.949 422.53Z" fill="#E6EAF0"/>
<path d="M716.631 389.24C716.631 396.03 722.131 401.53 728.921 401.53C735.711 401.53 741.211 396.03 741.211 389.24C741.211 382.45 735.711 376.95 728.921 376.95C722.131 376.95 716.631 382.45 716.631 389.24Z" fill="#E6EAF0"/>
<path d="M686.34 362.92C686.34 369.71 691.84 375.21 698.63 375.21C705.42 375.21 710.92 369.71 710.92 362.92C710.92 356.13 705.42 350.63 698.63 350.63C691.84 350.63 686.34 356.13 686.34 362.92Z" fill="#E6EAF0"/>
<path d="M659.52 341.06C659.52 347.85 665.02 353.35 671.81 353.35C678.6 353.35 684.099 347.85 684.099 341.06C684.099 334.27 678.6 328.77 671.81 328.77C665.02 328.77 659.52 334.27 659.52 341.06Z" fill="#E6EAF0"/>
<path d="M628.23 319.7C628.23 326.49 633.731 331.99 640.521 331.99C647.311 331.99 652.81 326.49 652.81 319.7C652.81 312.91 647.311 307.41 640.521 307.41C633.731 307.41 628.23 312.91 628.23 319.7Z" fill="#E6EAF0"/>
<path d="M594.461 310.75C594.461 317.54 599.961 323.04 606.751 323.04C613.541 323.04 619.041 317.54 619.041 310.75C619.041 303.96 613.541 298.46 606.751 298.46C599.961 298.46 594.461 303.96 594.461 310.75Z" fill="#E6EAF0"/>
<path d="M562.18 306.27C562.18 313.06 567.68 318.56 574.47 318.56C581.26 318.56 586.76 313.06 586.76 306.27C586.76 299.48 581.26 293.98 574.47 293.98C567.68 293.98 562.18 299.48 562.18 306.27Z" fill="#E6EAF0"/>
<path d="M530.891 304.78C530.891 311.57 536.391 317.07 543.181 317.07C549.971 317.07 555.471 311.57 555.471 304.78C555.471 297.99 549.971 292.49 543.181 292.49C536.391 292.49 530.891 297.99 530.891 304.78Z" fill="#E6EAF0"/>
<path d="M504.07 307.75C504.07 314.54 509.57 320.04 516.36 320.04C523.15 320.04 528.65 314.54 528.65 307.75C528.65 300.96 523.15 295.46 516.36 295.46C509.57 295.46 504.07 300.96 504.07 307.75Z" fill="#E6EAF0"/>
<path d="M479.73 315.2C479.73 321.99 485.23 327.49 492.02 327.49C498.81 327.49 504.31 321.99 504.31 315.2C504.31 308.41 498.81 302.91 492.02 302.91C485.23 302.91 479.73 308.41 479.73 315.2Z" fill="#E6EAF0"/>
<path d="M795.78 429.1C797.1 435.76 803.57 440.08 810.23 438.76C816.89 437.44 821.21 430.97 819.89 424.31C818.57 417.65 812.1 413.33 805.44 414.65C798.78 415.97 794.46 422.44 795.78 429.1Z" fill="#E6EAF0"/>
<path d="M768.46 390.99C769.78 397.65 776.25 401.97 782.91 400.65C789.57 399.33 793.89 392.86 792.57 386.2C791.25 379.54 784.78 375.22 778.12 376.54C771.46 377.86 767.14 384.33 768.46 390.99Z" fill="#E6EAF0"/>
<path d="M738.011 357.54C739.331 364.2 745.801 368.52 752.461 367.2C759.121 365.88 763.441 359.41 762.121 352.75C760.801 346.09 754.331 341.77 747.671 343.09C741.011 344.41 736.691 350.88 738.011 357.54Z" fill="#E6EAF0"/>
<path d="M706.681 329.84C708.001 336.5 714.471 340.82 721.131 339.5C727.791 338.18 732.111 331.71 730.791 325.05C729.471 318.39 723.001 314.07 716.341 315.39C709.681 316.71 705.361 323.18 706.681 329.84Z" fill="#E6EAF0"/>
<path d="M671.829 309.92C673.149 316.58 679.619 320.9 686.279 319.58C692.939 318.26 697.259 311.79 695.939 305.13C694.619 298.47 688.149 294.15 681.489 295.47C674.829 296.79 670.509 303.26 671.829 309.92Z" fill="#E6EAF0"/>
<path d="M641.27 293.72C642.59 300.38 649.06 304.7 655.72 303.38C662.38 302.06 666.7 295.59 665.38 288.93C664.06 282.27 657.59 277.95 650.93 279.27C644.27 280.59 639.95 287.06 641.27 293.72Z" fill="#E6EAF0"/>
<path d="M606.421 278.87C607.741 285.53 614.211 289.85 620.871 288.53C627.531 287.21 631.851 280.74 630.531 274.08C629.211 267.42 622.741 263.1 616.081 264.42C609.421 265.74 605.101 272.21 606.421 278.87Z" fill="#E6EAF0"/>
<path d="M571.55 276.68C572.87 283.34 579.34 287.66 586 286.34C592.66 285.02 596.98 278.55 595.66 271.89C594.34 265.23 587.87 260.91 581.21 262.23C574.55 263.55 570.23 270.02 571.55 276.68Z" fill="#E6EAF0"/>
<path d="M539.011 278.59C540.331 285.25 546.801 289.57 553.461 288.25C560.121 286.93 564.441 280.46 563.121 273.8C561.801 267.14 555.331 262.82 548.671 264.14C542.011 265.46 537.691 271.93 539.011 278.59Z" fill="#E6EAF0"/>
<path d="M508.03 283.23C509.35 289.89 515.82 294.21 522.48 292.89C529.14 291.57 533.46 285.1 532.14 278.44C530.82 271.78 524.35 267.46 517.69 268.78C511.03 270.1 506.71 276.57 508.03 283.23Z" fill="#E6EAF0"/>
<path d="M482.31 291.38C483.63 298.04 490.1 302.36 496.76 301.04C503.42 299.72 507.74 293.25 506.42 286.59C505.1 279.93 498.63 275.61 491.97 276.93C485.31 278.25 480.99 284.72 482.31 291.38Z" fill="#E6EAF0"/>
<path d="M459.89 303.43C461.21 310.09 467.68 314.41 474.34 313.09C481 311.77 485.32 305.3 484 298.64C482.68 291.98 476.21 287.66 469.55 288.98C462.89 290.3 458.57 296.77 459.89 303.43Z" fill="#E6EAF0"/>
<path d="M792.09 353.49C794.69 359.76 801.88 362.74 808.15 360.15C814.42 357.55 817.4 350.36 814.81 344.09C812.21 337.82 805.02 334.84 798.75 337.43C792.48 340.03 789.5 347.22 792.09 353.49Z" fill="#E6EAF0"/>
<path d="M757.85 321.43C760.45 327.7 767.64 330.68 773.91 328.09C780.18 325.49 783.16 318.3 780.56 312.03C777.96 305.76 770.77 302.78 764.5 305.37C758.23 307.97 755.25 315.16 757.85 321.43Z" fill="#E6EAF0"/>
<path d="M721.469 294.57C724.069 300.84 731.259 303.82 737.529 301.23C743.799 298.63 746.779 291.44 744.189 285.17C741.589 278.9 734.399 275.92 728.129 278.51C721.859 281.11 718.879 288.3 721.469 294.57Z" fill="#E6EAF0"/>
<path d="M685.331 273.51C687.931 279.78 695.121 282.76 701.391 280.17C707.661 277.57 710.641 270.38 708.051 264.11C705.451 257.84 698.261 254.86 691.991 257.45C685.721 260.05 682.741 267.24 685.331 273.51Z" fill="#E6EAF0"/>
<path d="M647.27 260.78C649.87 267.05 657.06 270.03 663.33 267.44C669.6 264.84 672.58 257.65 669.99 251.38C667.4 245.11 660.2 242.13 653.93 244.72C647.66 247.32 644.68 254.51 647.27 260.78Z" fill="#E6EAF0"/>
<path d="M614.129 250.85C616.729 257.12 623.919 260.1 630.189 257.51C636.459 254.91 639.439 247.72 636.849 241.45C634.249 235.18 627.059 232.2 620.789 234.79C614.519 237.39 611.539 244.58 614.129 250.85Z" fill="#E6EAF0"/>
<path d="M598.681 245.07C602.392 239.387 600.793 231.771 595.109 228.061C589.426 224.35 581.81 225.949 578.1 231.633C574.389 237.316 575.988 244.932 581.672 248.642C587.355 252.353 594.971 250.754 598.681 245.07Z" fill="#E6EAF0"/>
<path d="M542.43 247.74C545.03 254.01 552.22 256.99 558.49 254.4C564.76 251.8 567.74 244.61 565.15 238.34C562.55 232.07 555.36 229.09 549.09 231.68C542.82 234.28 539.84 241.47 542.43 247.74Z" fill="#E6EAF0"/>
<path d="M510.889 255.96C513.489 262.23 520.679 265.21 526.949 262.62C533.219 260.02 536.199 252.83 533.609 246.56C531.009 240.29 523.819 237.31 517.549 239.9C511.279 242.5 508.299 249.69 510.889 255.96Z" fill="#E6EAF0"/>
<path d="M481.411 266.55C484.011 272.82 491.201 275.8 497.471 273.21C503.741 270.61 506.721 263.42 504.131 257.15C501.531 250.88 494.341 247.9 488.071 250.49C481.801 253.09 478.821 260.28 481.411 266.55Z" fill="#E6EAF0"/>
<path d="M457.77 279.56C460.37 285.83 467.56 288.81 473.83 286.21C480.1 283.61 483.08 276.42 480.49 270.15C477.89 263.88 470.7 260.9 464.43 263.49C458.16 266.09 455.18 273.28 457.77 279.55V279.56Z" fill="#E6EAF0"/>
<path d="M438.129 295.76C440.729 302.03 447.919 305.01 454.189 302.42C460.459 299.83 463.439 292.63 460.849 286.36C458.249 280.09 451.059 277.11 444.789 279.7C438.519 282.3 435.539 289.49 438.129 295.76Z" fill="#E6EAF0"/>
<path d="M773.71 280.05C777.48 285.7 785.11 287.22 790.76 283.44C796.4 279.67 797.93 272.04 794.15 266.39C790.38 260.74 782.75 259.22 777.1 263C771.46 266.77 769.94 274.4 773.71 280.05Z" fill="#E6EAF0"/>
<path d="M733.879 255.29C737.649 260.94 745.279 262.46 750.929 258.68C756.569 254.91 758.089 247.28 754.319 241.63C750.549 235.98 742.919 234.46 737.269 238.24C731.619 242.02 730.099 249.64 733.879 255.29Z" fill="#E6EAF0"/>
<path d="M692.949 236.04C696.719 241.69 704.349 243.21 709.999 239.43C715.649 235.66 717.169 228.03 713.389 222.38C709.619 216.73 701.99 215.21 696.34 218.99C690.69 222.76 689.169 230.39 692.949 236.04Z" fill="#E6EAF0"/>
<path d="M653.41 222.43C657.18 228.08 664.81 229.6 670.46 225.82C676.11 222.04 677.63 214.42 673.85 208.77C670.08 203.13 662.45 201.6 656.8 205.38C651.15 209.15 649.63 216.78 653.41 222.43Z" fill="#E6EAF0"/>
<path d="M613.59 217.37C617.36 223.02 624.99 224.54 630.64 220.76C636.29 216.99 637.81 209.36 634.03 203.71C630.25 198.06 622.63 196.54 616.98 200.32C611.33 204.1 609.81 211.72 613.59 217.37Z" fill="#E6EAF0"/>
<path d="M579.151 214.09C582.921 219.73 590.551 221.25 596.201 217.48C601.851 213.71 603.371 206.08 599.591 200.43C595.821 194.79 588.191 193.27 582.541 197.04C576.891 200.81 575.371 208.44 579.151 214.09Z" fill="#E6EAF0"/>
<path d="M541.27 213.71C545.04 219.36 552.67 220.88 558.32 217.1C563.97 213.33 565.49 205.7 561.71 200.05C557.94 194.4 550.31 192.88 544.66 196.66C539.01 200.43 537.49 208.06 541.27 213.71Z" fill="#E6EAF0"/>
<path d="M508.22 225.04C511.99 230.69 519.62 232.21 525.27 228.43C530.91 224.66 532.43 217.03 528.66 211.38C524.89 205.74 517.26 204.22 511.61 207.99C505.97 211.76 504.45 219.39 508.22 225.04Z" fill="#E6EAF0"/>
<path d="M478.891 239.25C482.661 244.9 490.291 246.42 495.941 242.64C501.591 238.87 503.111 231.24 499.331 225.59C495.551 219.94 487.931 218.42 482.281 222.2C476.631 225.98 475.111 233.6 478.891 239.25Z" fill="#E6EAF0"/>
<path d="M452.041 255.39C455.811 261.04 463.441 262.56 469.091 258.78C474.731 255.01 476.251 247.38 472.481 241.73C468.711 236.08 461.081 234.56 455.431 238.34C449.791 242.11 448.261 249.74 452.041 255.39Z" fill="#E6EAF0"/>
<path d="M431.401 272.76C435.171 278.41 442.801 279.92 448.451 276.15C454.101 272.38 455.621 264.75 451.841 259.1C448.071 253.46 440.441 251.94 434.791 255.71C429.141 259.48 427.621 267.11 431.401 272.76Z" fill="#E6EAF0"/>
<path d="M415.3 292.48C419.07 298.13 426.7 299.65 432.35 295.87C437.99 292.1 439.51 284.47 435.74 278.82C431.97 273.17 424.34 271.65 418.69 275.43C413.05 279.2 411.53 286.83 415.3 292.48Z" fill="#E6EAF0"/>
<path d="M741.37 211.6C746.17 216.4 753.95 216.4 758.75 211.6C763.55 206.8 763.55 199.02 758.75 194.22C753.95 189.42 746.17 189.42 741.37 194.22C736.57 199.02 736.57 206.8 741.37 211.6Z" fill="#E6EAF0"/>
<path d="M697.469 195.09C702.269 199.89 710.049 199.89 714.849 195.09C719.649 190.29 719.649 182.51 714.849 177.71C710.049 172.91 702.269 172.91 697.469 177.71C692.669 182.51 692.669 190.29 697.469 195.09Z" fill="#E6EAF0"/>
<path d="M653.571 184.19C658.371 188.99 666.151 188.99 670.951 184.19C675.751 179.39 675.751 171.61 670.951 166.81C666.151 162.01 658.371 162.01 653.571 166.81C648.771 171.61 648.771 179.39 653.571 184.19Z" fill="#E6EAF0"/>
<path d="M612.131 178.56C616.931 183.36 624.711 183.36 629.511 178.56C634.311 173.76 634.311 165.98 629.511 161.18C624.711 156.38 616.931 156.38 612.131 161.18C607.331 165.98 607.331 173.76 612.131 178.56Z" fill="#E6EAF0"/>
<path d="M572.09 181.37C576.89 186.17 584.67 186.17 589.47 181.37C594.27 176.57 594.27 168.79 589.47 163.99C584.67 159.19 576.89 159.19 572.09 163.99C567.29 168.79 567.29 176.57 572.09 181.37Z" fill="#E6EAF0"/>
<path d="M537.68 184.87C542.48 189.67 550.26 189.67 555.06 184.87C559.86 180.07 559.86 172.29 555.06 167.49C550.26 162.69 542.48 162.69 537.68 167.49C532.88 172.29 532.88 180.07 537.68 184.87Z" fill="#E6EAF0"/>
<path d="M500.45 191.89C505.25 196.69 513.03 196.69 517.83 191.89C522.63 187.09 522.63 179.31 517.83 174.51C513.03 169.71 505.25 169.71 500.45 174.51C495.65 179.31 495.65 187.09 500.45 191.89Z" fill="#E6EAF0"/>
<path d="M470.241 209.44C475.041 214.24 482.821 214.24 487.621 209.44C492.421 204.64 492.421 196.86 487.621 192.06C482.821 187.26 475.041 187.26 470.241 192.06C465.441 196.86 465.441 204.64 470.241 209.44Z" fill="#E6EAF0"/>
<path d="M444.25 229.1C449.05 233.9 456.83 233.9 461.63 229.1C466.43 224.3 466.43 216.52 461.63 211.72C456.83 206.92 449.05 206.92 444.25 211.72C439.45 216.52 439.45 224.3 444.25 229.1Z" fill="#E6EAF0"/>
<path d="M421.071 250.17C425.871 254.97 433.651 254.97 438.451 250.17C443.251 245.37 443.251 237.59 438.451 232.79C433.651 227.99 425.871 227.99 421.071 232.79C416.271 237.59 416.271 245.37 421.071 250.17Z" fill="#E6EAF0"/>
<path d="M404.2 271.24C409 276.04 416.78 276.04 421.58 271.24C426.38 266.44 426.38 258.66 421.58 253.86C416.78 249.06 409 249.06 404.2 253.86C399.4 258.66 399.4 266.44 404.2 271.24Z" fill="#E6EAF0"/>
<path d="M392.26 293.71C397.06 298.51 404.84 298.51 409.64 293.71C414.44 288.91 414.44 281.13 409.64 276.33C404.84 271.53 397.06 271.53 392.26 276.33C387.46 281.13 387.46 288.91 392.26 293.71Z" fill="#E6EAF0"/>
<path d="M696.29 150.78C701.93 154.55 709.57 153.04 713.34 147.39C717.11 141.75 715.6 134.11 709.95 130.34C704.31 126.57 696.67 128.08 692.9 133.73C689.13 139.37 690.64 147.01 696.29 150.78Z" fill="#E6EAF0"/>
<path d="M650.011 143.15C655.651 146.92 663.291 145.41 667.061 139.76C670.831 134.12 669.321 126.48 663.671 122.71C658.031 118.94 650.391 120.45 646.621 126.1C642.851 131.75 644.361 139.38 650.011 143.15Z" fill="#E6EAF0"/>
<path d="M604.829 141.03C610.469 144.8 618.109 143.29 621.879 137.64C625.649 132 624.139 124.36 618.489 120.59C612.849 116.82 605.209 118.33 601.439 123.98C597.669 129.62 599.179 137.26 604.829 141.03Z" fill="#E6EAF0"/>
<path d="M563.091 143.59C568.731 147.36 576.371 145.85 580.141 140.2C583.911 134.56 582.401 126.92 576.751 123.15C571.101 119.38 563.471 120.89 559.701 126.54C555.931 132.18 557.441 139.82 563.091 143.59Z" fill="#E6EAF0"/>
<path d="M524.37 154.15C530.01 157.92 537.65 156.41 541.42 150.76C545.19 145.12 543.68 137.48 538.03 133.71C532.39 129.94 524.75 131.45 520.98 137.1C517.21 142.74 518.72 150.38 524.37 154.15Z" fill="#E6EAF0"/>
<path d="M491.3 164.3C496.94 168.07 504.58 166.56 508.35 160.91C512.12 155.27 510.61 147.63 504.96 143.86C499.31 140.09 491.68 141.6 487.91 147.25C484.14 152.89 485.65 160.53 491.3 164.3Z" fill="#E6EAF0"/>
<path d="M456.15 178.44C461.79 182.21 469.43 180.7 473.2 175.05C476.97 169.41 475.46 161.77 469.81 158C464.17 154.23 456.53 155.74 452.76 161.39C448.99 167.03 450.5 174.67 456.15 178.44Z" fill="#E6EAF0"/>
<path d="M429.95 201.55C435.59 205.32 443.23 203.81 447 198.16C450.77 192.52 449.26 184.88 443.61 181.11C437.96 177.34 430.33 178.85 426.56 184.5C422.79 190.14 424.3 197.78 429.95 201.55Z" fill="#E6EAF0"/>
<path d="M408.29 225.91C413.93 229.68 421.57 228.17 425.34 222.52C429.11 216.88 427.6 209.24 421.95 205.47C416.31 201.7 408.67 203.21 404.9 208.86C401.13 214.51 402.64 222.14 408.29 225.91Z" fill="#E6EAF0"/>
<path d="M389.659 251.09C395.299 254.86 402.939 253.35 406.709 247.7C410.479 242.06 408.969 234.42 403.319 230.65C397.679 226.88 390.039 228.39 386.269 234.04C382.499 239.68 384.009 247.32 389.659 251.09Z" fill="#E6EAF0"/>
<path d="M377.239 275.05C382.879 278.82 390.519 277.31 394.289 271.66C398.059 266.02 396.549 258.38 390.899 254.61C385.259 250.84 377.619 252.35 373.849 258C370.079 263.65 371.589 271.28 377.239 275.05Z" fill="#E6EAF0"/>
<path d="M369.9 299.42C375.54 303.19 383.18 301.68 386.95 296.03C390.72 290.39 389.21 282.75 383.56 278.98C377.92 275.21 370.28 276.72 366.51 282.37C362.74 288.01 364.25 295.65 369.9 299.42Z" fill="#E6EAF0"/>
<path d="M640.211 99.92C646.481 102.52 653.671 99.54 656.271 93.27C658.871 87 655.891 79.81 649.621 77.21C643.351 74.61 636.161 77.59 633.561 83.86C630.961 90.13 633.941 97.32 640.211 99.92Z" fill="#E6EAF0"/>
<path d="M593.33 101.46C599.6 104.06 606.79 101.08 609.39 94.81C611.99 88.54 609.01 81.35 602.74 78.75C596.47 76.15 589.28 79.13 586.68 85.4C584.08 91.67 587.06 98.86 593.33 101.46Z" fill="#E6EAF0"/>
<path d="M548.609 108.2C554.879 110.8 562.069 107.82 564.669 101.55C567.269 95.28 564.289 88.09 558.019 85.49C551.749 82.89 544.559 85.87 541.959 92.14C539.359 98.41 542.339 105.6 548.609 108.2Z" fill="#E6EAF0"/>
<path d="M508.17 118.85C514.44 121.45 521.63 118.47 524.23 112.2C526.83 105.93 523.85 98.7401 517.58 96.1401C511.31 93.5401 504.12 96.5201 501.52 102.79C498.92 109.06 501.9 116.25 508.17 118.85Z" fill="#E6EAF0"/>
<path d="M472.25 136.76C478.52 139.36 485.71 136.38 488.31 130.11C490.91 123.84 487.93 116.65 481.66 114.05C475.39 111.45 468.2 114.43 465.6 120.7C463 126.97 465.98 134.16 472.25 136.76Z" fill="#E6EAF0"/>
<path d="M441.789 153.17C448.059 155.77 455.249 152.79 457.849 146.52C460.449 140.25 457.469 133.06 451.199 130.46C444.929 127.86 437.739 130.84 435.139 137.11C432.539 143.38 435.519 150.57 441.789 153.17Z" fill="#E6EAF0"/>
<path d="M410.08 173.9C416.35 176.5 423.54 173.52 426.14 167.25C428.74 160.98 425.76 153.79 419.49 151.19C413.22 148.59 406.03 151.57 403.43 157.84C400.83 164.11 403.81 171.3 410.08 173.9Z" fill="#E6EAF0"/>
<path d="M388.891 201.68C395.161 204.28 402.351 201.3 404.951 195.03C407.551 188.76 404.571 181.57 398.301 178.97C392.031 176.37 384.841 179.35 382.241 185.62C379.641 191.89 382.621 199.08 388.891 201.68Z" fill="#E6EAF0"/>
<path d="M372.4 229.79C378.67 232.39 385.86 229.41 388.46 223.14C391.06 216.87 388.08 209.68 381.81 207.08C375.54 204.48 368.35 207.46 365.75 213.73C363.15 220 366.13 227.19 372.4 229.79Z" fill="#E6EAF0"/>
<path d="M359.051 258.12C365.321 260.72 372.511 257.74 375.111 251.47C377.711 245.2 374.731 238.01 368.461 235.41C362.191 232.81 355.001 235.79 352.401 242.06C349.801 248.33 352.781 255.52 359.051 258.12Z" fill="#E6EAF0"/>
<path d="M351.529 284.04C357.799 286.64 364.989 283.66 367.589 277.39C370.189 271.12 367.209 263.93 360.939 261.33C354.669 258.73 347.479 261.71 344.879 267.98C342.279 274.25 345.259 281.44 351.529 284.04Z" fill="#E6EAF0"/>
<path d="M349.09 309.38C355.36 311.98 362.55 309 365.15 302.73C367.75 296.46 364.77 289.27 358.5 286.67C352.23 284.07 345.04 287.05 342.44 293.32C339.84 299.59 342.82 306.78 349.09 309.38Z" fill="#E6EAF0"/>
<path d="M575.29 60.98C581.95 62.31 588.42 57.98 589.75 51.33C591.08 44.67 586.75 38.2 580.1 36.87C573.44 35.54 566.971 39.87 565.641 46.52C564.311 53.18 568.64 59.65 575.29 60.98Z" fill="#E6EAF0"/>
<path d="M529.611 71.64C536.271 72.97 542.741 68.64 544.071 61.99C545.401 55.33 541.071 48.86 534.421 47.53C527.761 46.2 521.291 50.53 519.961 57.18C518.631 63.84 522.961 70.31 529.611 71.64Z" fill="#E6EAF0"/>
<path d="M487.06 86.97C493.72 88.3 500.19 83.97 501.52 77.32C502.85 70.66 498.52 64.19 491.87 62.86C485.21 61.53 478.74 65.86 477.41 72.51C476.08 79.17 480.41 85.64 487.06 86.97Z" fill="#E6EAF0"/>
<path d="M449.48 105.31C456.14 106.64 462.61 102.31 463.94 95.66C465.27 89 460.94 82.53 454.29 81.2C447.63 79.87 441.16 84.2 439.83 90.85C438.5 97.51 442.83 103.98 449.48 105.31Z" fill="#E6EAF0"/>
<path d="M417.74 129.88C424.4 131.21 430.87 126.88 432.2 120.23C433.53 113.57 429.2 107.1 422.55 105.77C415.89 104.44 409.42 108.77 408.09 115.42C406.76 122.08 411.09 128.55 417.74 129.88Z" fill="#E6EAF0"/>
<path d="M391.07 151.92C397.73 153.25 404.2 148.92 405.53 142.27C406.86 135.61 402.53 129.14 395.88 127.81C389.22 126.48 382.75 130.81 381.42 137.46C380.09 144.12 384.42 150.59 391.07 151.92Z" fill="#E6EAF0"/>
<path d="M364.011 178.43C370.671 179.76 377.141 175.43 378.471 168.78C379.801 162.12 375.471 155.65 368.821 154.32C362.161 152.99 355.691 157.32 354.361 163.97C353.031 170.63 357.361 177.1 364.011 178.43Z" fill="#E6EAF0"/>
<path d="M348.65 209.81C355.31 211.14 361.78 206.81 363.11 200.16C364.44 193.5 360.11 187.03 353.46 185.7C346.8 184.37 340.33 188.7 339 195.35C337.67 202.01 342 208.48 348.65 209.81Z" fill="#E6EAF0"/>
<path d="M337.96 240.6C344.62 241.93 351.09 237.6 352.42 230.95C353.75 224.29 349.42 217.82 342.77 216.49C336.11 215.16 329.64 219.49 328.31 226.14C326.98 232.8 331.31 239.27 337.96 240.6Z" fill="#E6EAF0"/>
<path d="M330.39 271C337.05 272.33 343.52 268 344.85 261.35C346.18 254.69 341.85 248.22 335.2 246.89C328.54 245.56 322.07 249.89 320.74 256.54C319.41 263.2 323.74 269.67 330.39 271Z" fill="#E6EAF0"/>
<path d="M328.07 297.88C334.73 299.21 341.2 294.88 342.53 288.23C343.86 281.57 339.53 275.1 332.88 273.77C326.22 272.44 319.75 276.77 318.42 283.42C317.09 290.08 321.42 296.55 328.07 297.88Z" fill="#E6EAF0"/>
<path d="M330.63 323.2C337.29 324.53 343.76 320.2 345.09 313.55C346.42 306.89 342.09 300.42 335.44 299.09C328.78 297.76 322.31 302.09 320.98 308.74C319.65 315.4 323.98 321.87 330.63 323.2Z" fill="#E6EAF0"/>
</g>
<defs>
<clipPath id="clip0_447_7254">
<rect width="820.13" height="820.12" fill="white"/>
</clipPath>
</defs>
</svg>
