<svg width="176" height="40" viewBox="0 0 176 40" fill="none" xmlns="http://www.w3.org/2000/svg">
<g clip-path="url(#clip0_1_587)">
<path d="M73.2108 17.2559C72.1309 16.4336 70.6464 15.9909 69.2236 15.9909C65.8398 15.9909 63.2548 18.4013 63.2548 21.2615C63.2548 24.1216 65.8192 26.4969 69.1824 26.4969C70.6635 26.4969 72.0863 26.019 73.2074 25.1617V27.0591C72.0452 27.6424 70.5641 27.9656 69.2407 27.9656C64.9347 27.9656 61.3691 25.0387 61.3691 21.3107C61.3691 17.5826 64.9552 14.5187 69.4019 14.5187C70.7252 14.5187 72.0657 14.7927 73.2074 15.3901V17.2559H73.2108Z" fill="#92C0E9"/>
<path d="M85.7106 24.4554L83.9895 27.688H81.9668L89.1767 14.2411L96.3866 27.688H94.3639L92.6428 24.4554H85.714H85.7106ZM89.1767 17.7653L86.4923 22.9832H91.8611L89.1767 17.7653Z" fill="#92C0E9"/>
<path d="M108.242 27.688H106.359V14.7892H108.523C113.168 14.7892 114.612 16.156 114.612 18.5172C114.612 21.2368 112.188 22.2804 109.325 22.2804H108.245V27.6845L108.242 27.688ZM108.242 20.8468H108.842C110.765 20.8468 112.846 20.5376 112.846 18.4856C112.846 16.4336 110.604 16.2263 108.739 16.2263H108.238V20.8468H108.242Z" fill="#92C0E9"/>
<path d="M125.006 14.1743L136.344 24.3183V14.7892H138.226V28.2185L126.888 18.0745V27.688H125.006V14.1743Z" fill="#92C0E9"/>
<path d="M151.546 27.688H149.664V14.7892H151.546V27.688Z" fill="#92C0E9"/>
<path d="M165.324 24.4554L163.603 27.688H161.58L168.79 14.241L176 27.688H173.977L172.256 24.4554H165.327H165.324ZM168.79 17.7653L166.106 22.9831H171.474L168.79 17.7653Z" fill="#92C0E9"/>
<path d="M30.9961 9.47997C28.1745 7.05903 24.3107 5.36543 20.6012 5.36543C12.3319 5.36543 5.83513 11.5987 5.83513 19.9895C5.83513 28.3802 11.8451 34.6381 20.6184 34.6381C24.4856 34.6381 28.0683 32.9726 30.9961 30.4533V37.0766C27.9654 38.7913 24.0982 40.0035 20.6526 40.0035C8.95839 40 0 31.1279 0 20.137C0 9.14617 8.91382 0 21.0709 0C24.5199 0 28.0203 1.05762 30.9961 2.82502V9.47997Z" fill="#92C0E9"/>
<path d="M20.2721 29.2129C25.0757 29.2129 28.9699 25.2219 28.9699 20.2987C28.9699 15.3755 25.0757 11.3844 20.2721 11.3844C15.4684 11.3844 11.5742 15.3755 11.5742 20.2987C11.5742 25.2219 15.4684 29.2129 20.2721 29.2129Z" fill="#FDB913"/>
<path d="M37.4985 25.3444C40.244 25.3444 42.4697 23.0634 42.4697 20.2495C42.4697 17.4357 40.244 15.1547 37.4985 15.1547C34.753 15.1547 32.5273 17.4357 32.5273 20.2495C32.5273 23.0634 34.753 25.3444 37.4985 25.3444Z" fill="#FDB913"/>
</g>
<defs>
<clipPath id="clip0_1_587">
<rect width="176" height="40" fill="white"/>
</clipPath>
</defs>
</svg>
