<svg width="174" height="39" viewBox="0 0 174 39" fill="none" xmlns="http://www.w3.org/2000/svg">
<g clip-path="url(#clip0_1_2633)">
<path d="M30.8134 2.74887V9.46064C27.4078 6.71806 23.8832 5.34677 20.2397 5.34677C16.2268 5.34677 12.8462 6.73694 10.0979 9.50468C7.33086 12.2598 5.94733 15.6315 5.94733 19.6195C5.94733 23.6076 7.33086 26.8848 10.0917 29.5897C12.8587 32.2945 16.2456 33.6532 20.2585 33.6532C22.3306 33.6532 24.0961 33.3261 25.5485 32.6782C26.356 32.3511 27.1949 31.9171 28.0651 31.3635C28.9353 30.81 29.8493 30.1432 30.8072 29.3695V36.226C27.4328 38.0753 23.8957 39 20.1833 39C14.5991 39 9.835 37.1255 5.89098 33.3765C1.96575 29.596 0 25.0355 0 19.695C0 14.9081 1.64647 10.6369 4.93315 6.8879C8.98359 2.29597 14.2172 0 20.6404 0C24.1461 0 27.5393 0.918387 30.8072 2.74887H30.8134Z" fill="white"/>
<path d="M72.2573 15.1026V17.3294C70.9739 16.4173 69.6467 15.9644 68.2695 15.9644C66.7545 15.9644 65.4836 16.4236 64.4444 17.342C63.3989 18.2541 62.8793 19.3738 62.8793 20.701C62.8793 22.0283 63.3989 23.1102 64.4444 24.0097C65.4836 24.9093 66.767 25.3559 68.2757 25.3559C69.0583 25.3559 69.7219 25.2489 70.2665 25.0351C70.5733 24.9281 70.8863 24.7834 71.2181 24.601C71.5436 24.4186 71.8879 24.1984 72.251 23.9405V26.2113C70.9802 26.8215 69.6467 27.1297 68.2444 27.1297C66.1409 27.1297 64.3442 26.507 62.8605 25.2678C61.3706 24.016 60.6318 22.5001 60.6318 20.7325C60.6318 19.1473 61.2516 17.732 62.4974 16.4865C64.0249 14.9643 65.997 14.2031 68.4197 14.2031C69.7406 14.2031 71.0177 14.5051 72.251 15.1152L72.2573 15.1026Z" fill="white"/>
<path d="M91.5204 23.8653H85.2162L83.576 26.891H81.1846L88.4654 13.6436L95.4895 26.891H93.0604L91.5141 23.8653H91.5204ZM90.6189 22.0915L88.434 17.8518L86.149 22.0915H90.6189Z" fill="white"/>
<path d="M107.378 21.8397V26.8908H105.149V14.4297H107.666C108.899 14.4297 109.832 14.5052 110.458 14.6498C111.097 14.7945 111.654 15.0713 112.136 15.4739C112.981 16.1721 113.407 17.059 113.407 18.1221C113.407 19.2669 112.956 20.1728 112.055 20.8395C111.153 21.5063 109.939 21.8397 108.411 21.8397H107.384H107.378ZM107.378 20.091H108.204C110.239 20.091 111.253 19.4242 111.253 18.0907C111.253 16.7571 110.208 16.1595 108.111 16.1595H107.378V20.091Z" fill="white"/>
<path d="M123.505 26.8909V13.5806L134.248 23.0852V14.4235H136.476V27.652L125.734 18.1599V26.8846H123.505V26.8909Z" fill="white"/>
<path d="M150.029 14.4297V26.8908H147.801V14.4297H150.029Z" fill="white"/>
<path d="M170.025 23.8653H163.721L162.081 26.891H159.689L166.97 13.6436L173.994 26.891H171.565L170.019 23.8653H170.025ZM169.118 22.0915L166.933 17.8518L164.641 22.0915H169.111H169.118Z" fill="white"/>
<path d="M28.635 19.7455C28.635 24.5513 24.7599 28.445 19.9833 28.445C15.2066 28.445 11.3252 24.5513 11.3252 19.7455C11.3252 14.9397 15.2003 11.0522 19.9833 11.0522C24.7662 11.0522 28.635 14.946 28.635 19.7455Z" fill="#FFCC66"/>
<path d="M42.0696 19.7454C42.0696 22.5132 39.8409 24.7462 37.0863 24.7462C34.3318 24.7462 32.1094 22.5069 32.1094 19.7454C32.1094 16.984 34.3381 14.7446 37.0863 14.7446C39.8346 14.7446 42.0696 16.984 42.0696 19.7454Z" fill="#FFCC66"/>
</g>
<defs>
<clipPath id="clip0_1_2633">
<rect width="174" height="39" fill="white"/>
</clipPath>
</defs>
</svg>
