<svg width="27" height="27" viewBox="0 0 27 27" fill="none" xmlns="http://www.w3.org/2000/svg">
<path d="M25.5856 5.27124C26.3668 4.49017 26.3667 3.22375 25.5856 2.4427L24.5568 1.41408C23.7758 0.633099 22.5095 0.63315 21.7285 1.4142L14.9142 8.22877C14.1332 9.00985 12.8668 9.00986 12.0858 8.2288L5.27116 1.41421C4.49012 0.633165 3.22379 0.633165 2.44274 1.41421L1.41418 2.44277C0.633146 3.2238 0.63313 4.49011 1.41415 5.27116L8.22849 12.0858C9.00949 12.8669 9.00949 14.1331 8.22849 14.9142L1.41415 21.7288C0.633129 22.5099 0.633145 23.7762 1.41418 24.5572L2.44274 25.5858C3.22378 26.3668 4.49011 26.3668 5.27116 25.5858L12.0858 18.7712C12.8668 17.9901 14.1332 17.9901 14.9142 18.7712L21.7285 25.5858C22.5095 26.3668 23.7758 26.3669 24.5568 25.5859L25.5856 24.5573C26.3667 23.7762 26.3667 22.5098 25.5856 21.7288L18.7708 14.9142C17.9897 14.1332 17.9897 12.8668 18.7708 12.0858L25.5856 5.27124Z" fill="white"/>
</svg>
